<?xml version="1.0" encoding="UTF-8" standalone="no"?>
<!-- Created with Inkscape (http://www.inkscape.org/) -->
<svg
   xmlns:dc="http://purl.org/dc/elements/1.1/"
   xmlns:cc="http://web.resource.org/cc/"
   xmlns:rdf="http://www.w3.org/1999/02/22-rdf-syntax-ns#"
   xmlns:svg="http://www.w3.org/2000/svg"
   xmlns="http://www.w3.org/2000/svg"
   xmlns:xlink="http://www.w3.org/1999/xlink"
   xmlns:sodipodi="http://inkscape.sourceforge.net/DTD/sodipodi-0.dtd"
   xmlns:inkscape="http://www.inkscape.org/namespaces/inkscape"
   inkscape:export-ydpi="90.000000"
   inkscape:export-xdpi="90.000000"
   inkscape:export-filename="/home/jimmac/Desktop/wi-fi.png"
   width="48px"
   height="48px"
   id="svg11300"
   sodipodi:version="0.32"
   inkscape:version="0.43+devel"
   sodipodi:docbase="/home/jimmac/src/cvs/tango-icon-theme/scalable/categories"
   sodipodi:docname="applications-utilities.svg">
  <defs
     id="defs3">
    <linearGradient
       inkscape:collect="always"
       id="linearGradient9909">
      <stop
         style="stop-color:#ffffff;stop-opacity:1;"
         offset="0"
         id="stop9911" />
      <stop
         style="stop-color:#ffffff;stop-opacity:0;"
         offset="1"
         id="stop9913" />
    </linearGradient>
    <linearGradient
       inkscape:collect="always"
       id="linearGradient9900">
      <stop
         style="stop-color:#ffffff;stop-opacity:1;"
         offset="0"
         id="stop9902" />
      <stop
         style="stop-color:#ffffff;stop-opacity:0;"
         offset="1"
         id="stop9904" />
    </linearGradient>
    <linearGradient
       inkscape:collect="always"
       id="linearGradient9888">
      <stop
         style="stop-color:#000000;stop-opacity:1;"
         offset="0"
         id="stop9890" />
      <stop
         style="stop-color:#000000;stop-opacity:0;"
         offset="1"
         id="stop9892" />
    </linearGradient>
    <linearGradient
       id="linearGradient9876">
      <stop
         style="stop-color:#edd400;stop-opacity:1;"
         offset="0"
         id="stop9878" />
      <stop
         style="stop-color:#d7c000;stop-opacity:1;"
         offset="1"
         id="stop9880" />
    </linearGradient>
    <linearGradient
       id="linearGradient9858">
      <stop
         style="stop-color:#c4a000;stop-opacity:1;"
         offset="0"
         id="stop9860" />
      <stop
         style="stop-color:#c4a000;stop-opacity:0;"
         offset="1"
         id="stop9862" />
    </linearGradient>
    <linearGradient
       inkscape:collect="always"
       id="linearGradient9848">
      <stop
         style="stop-color:#ffffff;stop-opacity:1;"
         offset="0"
         id="stop9850" />
      <stop
         style="stop-color:#ffffff;stop-opacity:0;"
         offset="1"
         id="stop9852" />
    </linearGradient>
    <linearGradient
       id="linearGradient9838">
      <stop
         style="stop-color:#fef296;stop-opacity:1;"
         offset="0"
         id="stop9840" />
      <stop
         style="stop-color:#e7ce03;stop-opacity:1;"
         offset="1"
         id="stop9842" />
    </linearGradient>
    <linearGradient
       id="linearGradient9830">
      <stop
         style="stop-color:#a69302;stop-opacity:1;"
         offset="0"
         id="stop9832" />
      <stop
         style="stop-color:#d8c103;stop-opacity:1;"
         offset="1"
         id="stop9834" />
    </linearGradient>
    <linearGradient
       inkscape:collect="always"
       xlink:href="#linearGradient9830"
       id="linearGradient9836"
       x1="18.360023"
       y1="26.780132"
       x2="27.484169"
       y2="38.181648"
       gradientUnits="userSpaceOnUse" />
    <radialGradient
       inkscape:collect="always"
       xlink:href="#linearGradient9838"
       id="radialGradient9844"
       cx="25.810114"
       cy="21.990847"
       fx="25.810114"
       fy="21.990847"
       r="21.267771"
       gradientTransform="matrix(1,0,0,0.751396,-1.25,5.467005)"
       gradientUnits="userSpaceOnUse" />
    <linearGradient
       inkscape:collect="always"
       xlink:href="#linearGradient9848"
       id="linearGradient9854"
       x1="28.320078"
       y1="27.337009"
       x2="35.853924"
       y2="31.939751"
       gradientUnits="userSpaceOnUse" />
    <linearGradient
       inkscape:collect="always"
       xlink:href="#linearGradient9858"
       id="linearGradient9864"
       x1="16.36314"
       y1="31.558371"
       x2="16.791044"
       y2="27.069723"
       gradientUnits="userSpaceOnUse" />
    <linearGradient
       inkscape:collect="always"
       xlink:href="#linearGradient9830"
       id="linearGradient9866"
       gradientUnits="userSpaceOnUse"
       x1="23.390572"
       y1="28.367153"
       x2="29.509857"
       y2="41.459667" />
    <radialGradient
       inkscape:collect="always"
       xlink:href="#linearGradient9876"
       id="radialGradient9882"
       cx="9.4112492"
       cy="20.037323"
       fx="9.4112492"
       fy="20.037323"
       r="21.401736"
       gradientTransform="matrix(1,-2.752515e-16,1.857038e-16,0.959333,1.40165,0.640848)"
       gradientUnits="userSpaceOnUse" />
    <linearGradient
       inkscape:collect="always"
       xlink:href="#linearGradient9858"
       id="linearGradient9884"
       gradientUnits="userSpaceOnUse"
       x1="16.36314"
       y1="31.558371"
       x2="16.791044"
       y2="27.069723" />
    <radialGradient
       inkscape:collect="always"
       xlink:href="#linearGradient9888"
       id="radialGradient9894"
       cx="25.5"
       cy="30.25"
       fx="25.5"
       fy="30.25"
       r="21"
       gradientTransform="matrix(1,0,0,0.559524,0,13.3244)"
       gradientUnits="userSpaceOnUse" />
    <linearGradient
       inkscape:collect="always"
       xlink:href="#linearGradient9900"
       id="linearGradient9906"
       x1="21.625"
       y1="21.207581"
       x2="26.21936"
       y2="25.207581"
       gradientUnits="userSpaceOnUse" />
    <linearGradient
       inkscape:collect="always"
       xlink:href="#linearGradient9909"
       id="linearGradient9915"
       x1="18.5625"
       y1="17.109375"
       x2="25.53125"
       y2="23.734375"
       gradientUnits="userSpaceOnUse" />
    <linearGradient
       inkscape:collect="always"
       xlink:href="#linearGradient9830"
       id="linearGradient9917"
       gradientUnits="userSpaceOnUse"
       x1="19.248556"
       y1="31.285097"
       x2="21.230986"
       y2="37.772106" />
  </defs>
  <sodipodi:namedview
     stroke="#ef2929"
     fill="#eeeeec"
     id="base"
     pagecolor="#ffffff"
     bordercolor="#666666"
     borderopacity="0.25490196"
     inkscape:pageopacity="0.0"
     inkscape:pageshadow="2"
     inkscape:zoom="5.6568542"
     inkscape:cx="44.209955"
     inkscape:cy="23.056383"
     inkscape:current-layer="layer1"
     showgrid="false"
     inkscape:grid-bbox="true"
     inkscape:document-units="px"
     inkscape:showpageshadow="false"
     inkscape:window-width="1218"
     inkscape:window-height="1062"
     inkscape:window-x="2153"
     inkscape:window-y="56" />
  <metadata
     id="metadata4">
    <rdf:RDF>
      <cc:Work
         rdf:about="">
        <dc:format>image/svg+xml</dc:format>
        <dc:type
           rdf:resource="http://purl.org/dc/dcmitype/StillImage" />
        <dc:creator>
          <cc:Agent>
            <dc:title>Jakub Steiner</dc:title>
          </cc:Agent>
        </dc:creator>
        <dc:source>http://jimmac.musichall.cz</dc:source>
        <cc:license
           rdf:resource="http://creativecommons.org/licenses/by-sa/2.0/" />
        <dc:title>Utility Applications</dc:title>
        <dc:subject>
          <rdf:Bag>
            <rdf:li>utility</rdf:li>
            <rdf:li>applications</rdf:li>
            <rdf:li>category</rdf:li>
            <rdf:li>group</rdf:li>
          </rdf:Bag>
        </dc:subject>
      </cc:Work>
      <cc:License
         rdf:about="http://creativecommons.org/licenses/by-sa/2.0/">
        <cc:permits
           rdf:resource="http://web.resource.org/cc/Reproduction" />
        <cc:permits
           rdf:resource="http://web.resource.org/cc/Distribution" />
        <cc:requires
           rdf:resource="http://web.resource.org/cc/Notice" />
        <cc:requires
           rdf:resource="http://web.resource.org/cc/Attribution" />
        <cc:permits
           rdf:resource="http://web.resource.org/cc/DerivativeWorks" />
        <cc:requires
           rdf:resource="http://web.resource.org/cc/ShareAlike" />
      </cc:License>
    </rdf:RDF>
  </metadata>
  <g
     id="layer1"
     inkscape:label="Layer 1"
     inkscape:groupmode="layer">
    <path
       sodipodi:type="arc"
       style="opacity:0.76373626;color:#000000;fill:url(#radialGradient9894);fill-opacity:1;fill-rule:nonzero;stroke:none;stroke-width:1.0000006;stroke-linecap:butt;stroke-linejoin:miter;marker:none;marker-start:none;marker-mid:none;marker-end:none;stroke-miterlimit:4;stroke-dasharray:none;stroke-dashoffset:0;stroke-opacity:1;visibility:visible;display:inline;overflow:visible"
       id="path9886"
       sodipodi:cx="25.5"
       sodipodi:cy="30.25"
       sodipodi:rx="21"
       sodipodi:ry="11.75"
       d="M 46.5 30.25 A 21 11.75 0 1 1  4.5,30.25 A 21 11.75 0 1 1  46.5 30.25 z"
       inkscape:r_cx="true"
       inkscape:r_cy="true"
       transform="matrix(1,0,0,1.010639,-1.25,1.803192)" />
    <path
       inkscape:r_cy="true"
       inkscape:r_cx="true"
       id="path9816"
       d="M 44.089004,32.319729 C 42.338073,31.086148 32.926821,25.072437 32.926821,25.072437 L 30.519291,15.51218 L 26.579696,16.89996 L 26.798563,21.680087 L 29.643825,23.53046 L 15.63638,13.353413 C 13.99397,13.015245 12.563346,12.912394 13.009983,14.89539 L 19.357107,19.983913 L 9.289256,12.736621 C 7.5753566,12.480557 6.7269327,12.966328 6.6628587,14.1244 L 14.979781,20.446507 L 5.7873931,13.661807 C 3.501664,12.706016 2.4512799,13.260092 2.2855321,14.89539 L 11.259054,21.52589 L 5.1307941,16.89996 C 4.0125384,16.952607 2.8985003,17.010878 3.1609977,18.90453 L 15.63638,33.707508 L 44.089004,32.319729 z "
       style="opacity:1;color:#000000;fill:url(#radialGradient9882);fill-opacity:1;fill-rule:nonzero;stroke:#c4a000;stroke-width:1;stroke-linecap:butt;stroke-linejoin:miter;marker:none;marker-start:none;marker-mid:none;marker-end:none;stroke-miterlimit:4;stroke-dasharray:none;stroke-dashoffset:0;stroke-opacity:1;visibility:visible;display:inline;overflow:visible"
       sodipodi:nodetypes="ccccccccccccccccccc" />
    <path
       transform="matrix(0.726462,-0.128182,3.642568e-2,0.294923,17.74523,27.69705)"
       inkscape:r_cy="true"
       inkscape:r_cx="true"
       d="M 35.88567 33.06237 A 16.351845 6.9826794 0 1 1  3.1819801,33.06237 A 16.351845 6.9826794 0 1 1  35.88567 33.06237 z"
       sodipodi:ry="6.9826794"
       sodipodi:rx="16.351845"
       sodipodi:cy="33.06237"
       sodipodi:cx="19.533825"
       id="path9818"
       style="opacity:1;color:#000000;fill:url(#linearGradient9866);fill-opacity:1;fill-rule:nonzero;stroke:url(#linearGradient9884);stroke-width:2.1372633;stroke-linecap:butt;stroke-linejoin:miter;marker:none;marker-start:none;marker-mid:none;marker-end:none;stroke-miterlimit:4;stroke-dasharray:none;stroke-dashoffset:0;stroke-opacity:1;visibility:visible;display:inline;overflow:visible"
       sodipodi:type="arc" />
    <path
       style="opacity:1;color:#000000;fill:url(#radialGradient9844);fill-opacity:1;fill-rule:nonzero;stroke:#c4a000;stroke-width:0.99999988;stroke-linecap:butt;stroke-linejoin:miter;marker:none;marker-start:none;marker-mid:none;marker-end:none;stroke-miterlimit:4;stroke-dasharray:none;stroke-dashoffset:0;stroke-opacity:1;visibility:visible;display:inline;overflow:visible"
       d="M 5.1181679,33.974501 C 6.8690992,32.220883 14.954526,24.821037 14.954526,24.821037 L 17.362056,11.230489 C 17.362056,11.230489 21.426651,11.890811 21.301651,13.890811 L 22.020284,19.498585 L 19.237521,22.254013 L 32.307467,9.0366564 C 33.869967,7.5366564 35.808864,9.79118 34.621364,10.97868 L 28.52424,17.587358 L 38.40459,6.9098465 C 39.77959,5.6598465 41.929424,7.6248553 40.929424,8.9373553 L 33.089066,18.369967 L 42.148641,8.0141232 C 43.672078,6.1781857 46.189564,8.244305 45.033314,9.7208675 L 36.622294,19.779382 L 42.063052,13.390811 C 43.313052,11.765811 45.157849,13.240443 44.032849,14.865443 C 44.032849,14.865443 37.438999,23.552102 36.299485,28.213715 C 35.167384,32.845003 31.057467,38.033872 31.057467,38.033872 L 5.1181679,33.974501 z "
       id="path9814"
       inkscape:r_cx="true"
       inkscape:r_cy="true"
       sodipodi:nodetypes="ccccccccccccccccczcc" />
    <path
       transform="matrix(0.802687,0,0,0.78734,3.06067,9.477864)"
       style="opacity:0.74175822;color:#000000;fill:none;fill-opacity:1;fill-rule:nonzero;stroke:url(#linearGradient9854);stroke-width:1.25789952;stroke-linecap:butt;stroke-linejoin:miter;stroke-miterlimit:4;stroke-dashoffset:0;stroke-opacity:1;marker:none;marker-start:none;marker-mid:none;marker-end:none;visibility:visible;display:inline;overflow:visible"
       d="M 35.88567,33.06237 C 36.451977,36.856574 28.560043,40.04505 19.533825,40.04505 C 10.507607,40.04505 3.1819801,36.916809 3.1819801,33.06237 C 3.1819801,29.207931 10.365489,24.356612 18.404805,28.540508 C 25.949677,32.467082 35.651288,31.492033 35.88567,33.06237 z "
       id="path9846"
       sodipodi:nodetypes="cssss" />
    <path
       transform="matrix(0.876366,0,0,0.863289,0.7849,8.006006)"
       style="color:#000000;fill:url(#linearGradient9917);fill-opacity:1;fill-rule:nonzero;stroke:url(#linearGradient9864);stroke-width:1.14968634;stroke-linecap:butt;stroke-linejoin:miter;stroke-miterlimit:4;stroke-dashoffset:0;stroke-opacity:1;marker:none;marker-start:none;marker-mid:none;marker-end:none;visibility:visible;display:inline;overflow:visible"
       d="M 35.315132,33.06237 C 35.315132,36.916809 28.560043,40.04505 19.533825,40.04505 C 10.507607,40.04505 3.1819801,36.916809 3.1819801,33.06237 C 3.1819801,29.207931 11.899224,24.000895 19.819094,28.396412 C 26.907606,32.330528 34.757885,30.339307 35.315132,33.06237 z "
       id="path9812"
       sodipodi:nodetypes="csssc" />
    <path
       style="opacity:0.7;color:#000000;fill:url(#linearGradient9915);fill-opacity:1.0;fill-rule:nonzero;stroke:none;stroke-width:1;stroke-linecap:butt;stroke-linejoin:miter;marker:none;marker-start:none;marker-mid:none;marker-end:none;stroke-miterlimit:4;stroke-dasharray:none;stroke-dashoffset:0;stroke-opacity:1;visibility:visible;display:inline;overflow:visible"
       d="M 17.78125 11.84375 L 15.4375 25.125 L 9.125 30.875 C 9.9095813 30.574629 11.3125 30.375 11.3125 30.375 L 11.4375 30.25 L 11.46875 30.25 C 12.336139 30.261423 19.377044 30.269746 22.8125 27.5625 C 26.448357 24.697331 26.057003 18.514952 29.71875 12.75 C 23.12393 19.747067 19.702987 22.395486 16.5 25.21875 L 18.375 12.5625 C 18.375 12.5625 19.904247 13.007392 20.34375 13.75 C 20.736749 14.414032 21.271443 18.02442 21.40625 18.96875 C 21.32755 17.965641 21.020677 13.984776 20.71875 13.375 C 20.715984 13.369974 20.690261 13.348198 20.6875 13.34375 C 20.681913 13.335924 20.662015 13.320265 20.65625 13.3125 C 19.907768 12.341902 17.78125 11.84375 17.78125 11.84375 z "
       id="path9820" />
    <path
       style="opacity:0.7;color:#000000;fill:#ffffff;fill-opacity:1;fill-rule:nonzero;stroke:none;stroke-width:1;stroke-linecap:butt;stroke-linejoin:miter;marker:none;marker-start:none;marker-mid:none;marker-end:none;stroke-miterlimit:4;stroke-dasharray:none;stroke-dashoffset:0;stroke-opacity:1;visibility:visible;display:inline;overflow:visible"
       d="M 19.59375,22.59375 L 32.684197,9.3617305 C 32.99908,9.0026528 33.64624,8.853941 34.207376,9.4150776 C 34.782455,9.9901559 34.353066,10.534879 34.286774,10.60117 L 28.1875,17.25 L 33.828585,10.564558 C 33.828585,10.564558 34.227951,10.055573 33.766248,9.6363737 C 33.307565,9.2199158 32.823549,9.766898 32.823549,9.766898 L 19.59375,22.59375 z "
       id="path9822"
       inkscape:r_cx="true"
       inkscape:r_cy="true"
       sodipodi:nodetypes="cczccczcc" />
    <path
       sodipodi:nodetypes="cczccczcc"
       inkscape:r_cy="true"
       inkscape:r_cx="true"
       id="path9824"
       d="M 28.875,17.90625 L 38.715447,7.307043 C 39.03033,6.9479653 39.786865,6.8305035 40.348001,7.3916401 C 40.92308,7.9667184 40.610879,8.6208165 40.544587,8.6871075 L 34.4375,15.96875 L 39.953585,8.658308 C 39.953585,8.658308 40.352951,8.149323 39.891248,7.7301237 C 39.432565,7.3136658 38.956362,7.813773 38.956362,7.813773 L 28.875,17.90625 z "
       style="opacity:0.7;color:#000000;fill:#ffffff;fill-opacity:1;fill-rule:nonzero;stroke:none;stroke-width:1;stroke-linecap:butt;stroke-linejoin:miter;marker:none;marker-start:none;marker-mid:none;marker-end:none;stroke-miterlimit:4;stroke-dasharray:none;stroke-dashoffset:0;stroke-opacity:1;visibility:visible;display:inline;overflow:visible" />
    <path
       style="opacity:0.7;color:#000000;fill:#ffffff;fill-opacity:1;fill-rule:nonzero;stroke:none;stroke-width:1;stroke-linecap:butt;stroke-linejoin:miter;marker:none;marker-start:none;marker-mid:none;marker-end:none;stroke-miterlimit:4;stroke-dasharray:none;stroke-dashoffset:0;stroke-opacity:1;visibility:visible;display:inline;overflow:visible"
       d="M 33.460938,18.71875 L 42.75451,8.119543 C 43.069393,7.7604653 43.904053,7.635191 44.465189,8.1963276 C 45.040268,8.7714059 44.712442,9.3864415 44.58365,9.4996075 L 38.476563,16.78125 L 43.992648,9.470808 C 43.992648,9.470808 44.392014,8.961823 43.930311,8.5426237 C 43.471628,8.1261658 42.995425,8.626273 42.995425,8.626273 L 33.460938,18.71875 z "
       id="path9826"
       inkscape:r_cx="true"
       inkscape:r_cy="true"
       sodipodi:nodetypes="cczccczcc" />
    <path
       sodipodi:nodetypes="cczccczcc"
       inkscape:r_cy="true"
       inkscape:r_cx="true"
       id="path9828"
       d="M 36.970584,20.149745 L 42.584991,13.528014 C 42.899874,13.168936 43.437505,13.067042 43.721145,13.350682 C 43.987782,13.617319 43.857913,14.242486 43.596538,14.609768 L 37.920345,22.852633 L 43.049731,14.547823 C 43.049731,14.547823 43.341036,14.28264 43.131025,14.072629 C 42.913726,13.85533 42.571789,14.28886 42.571789,14.28886 L 36.970584,20.149745 z "
       style="opacity:0.7;color:#000000;fill:#ffffff;fill-opacity:1;fill-rule:nonzero;stroke:none;stroke-width:1;stroke-linecap:butt;stroke-linejoin:miter;marker:none;marker-start:none;marker-mid:none;marker-end:none;stroke-miterlimit:4;stroke-dasharray:none;stroke-dashoffset:0;stroke-opacity:1;visibility:visible;display:inline;overflow:visible" />
    <path
       style="opacity:0.74175822;color:#000000;fill:#ffffff;fill-opacity:1;fill-rule:nonzero;stroke:none;stroke-width:1;stroke-linecap:butt;stroke-linejoin:miter;marker:none;marker-start:none;marker-mid:none;marker-end:none;stroke-miterlimit:4;stroke-dasharray:none;stroke-dashoffset:0;stroke-opacity:1;visibility:visible;display:inline;overflow:visible"
       d="M 4.4952426,37.83534 C 5.1581552,39.625204 11.345339,42.321048 18.107048,42.254757 C 24.868757,42.188466 30.437223,39.713592 31.542077,37.570175 C 30.105766,39.255503 24.866688,41.507454 18.107048,41.547651 C 11.347408,41.587848 6.3576237,39.65572 4.4952426,37.83534 z "
       id="path9856"
       inkscape:r_cx="true"
       inkscape:r_cy="true"
       sodipodi:nodetypes="czczc" />
  </g>
</svg>
