<?xml version="1.0" encoding="UTF-8" standalone="no"?>
<!-- Created with Inkscape (http://www.inkscape.org/) -->
<svg
   xmlns:dc="http://purl.org/dc/elements/1.1/"
   xmlns:cc="http://web.resource.org/cc/"
   xmlns:rdf="http://www.w3.org/1999/02/22-rdf-syntax-ns#"
   xmlns:svg="http://www.w3.org/2000/svg"
   xmlns="http://www.w3.org/2000/svg"
   xmlns:xlink="http://www.w3.org/1999/xlink"
   xmlns:sodipodi="http://inkscape.sourceforge.net/DTD/sodipodi-0.dtd"
   xmlns:inkscape="http://www.inkscape.org/namespaces/inkscape"
   inkscape:export-ydpi="90.000000"
   inkscape:export-xdpi="90.000000"
   inkscape:export-filename="/home/jimmac/Desktop/wi-fi.png"
   width="48px"
   height="48px"
   id="svg11300"
   sodipodi:version="0.32"
   inkscape:version="0.43+devel"
   sodipodi:docbase="/home/jimmac/src/cvs/tango-icon-theme/scalable/categories"
   sodipodi:docname="applications-utilities.svg">
  <defs
     id="defs3">
    <linearGradient
       inkscape:collect="always"
       id="linearGradient9909">
      <stop
         style="stop-color:#ffffff;stop-opacity:1;"
         offset="0"
         id="stop9911" />
      <stop
         style="stop-color:#ffffff;stop-opacity:0;"
         offset="1"
         id="stop9913" />
    </linearGradient>
    <linearGradient
       inkscape:collect="always"
       id="linearGradient9888">
      <stop
         style="stop-color:#000000;stop-opacity:1;"
         offset="0"
         id="stop9890" />
      <stop
         style="stop-color:#000000;stop-opacity:0;"
         offset="1"
         id="stop9892" />
    </linearGradient>
    <linearGradient
       id="linearGradient9876">
      <stop
         style="stop-color:#edd400;stop-opacity:1;"
         offset="0"
         id="stop9878" />
      <stop
         style="stop-color:#d7c000;stop-opacity:1;"
         offset="1"
         id="stop9880" />
    </linearGradient>
    <linearGradient
       id="linearGradient9858">
      <stop
         style="stop-color:#c4a000;stop-opacity:1;"
         offset="0"
         id="stop9860" />
      <stop
         style="stop-color:#c4a000;stop-opacity:0;"
         offset="1"
         id="stop9862" />
    </linearGradient>
    <linearGradient
       inkscape:collect="always"
       id="linearGradient9848">
      <stop
         style="stop-color:#ffffff;stop-opacity:1;"
         offset="0"
         id="stop9850" />
      <stop
         style="stop-color:#ffffff;stop-opacity:0;"
         offset="1"
         id="stop9852" />
    </linearGradient>
    <linearGradient
       id="linearGradient9838">
      <stop
         style="stop-color:#fef296;stop-opacity:1;"
         offset="0"
         id="stop9840" />
      <stop
         style="stop-color:#e7ce03;stop-opacity:1;"
         offset="1"
         id="stop9842" />
    </linearGradient>
    <linearGradient
       id="linearGradient9830">
      <stop
         style="stop-color:#a69302;stop-opacity:1;"
         offset="0"
         id="stop9832" />
      <stop
         style="stop-color:#d8c103;stop-opacity:1;"
         offset="1"
         id="stop9834" />
    </linearGradient>
    <radialGradient
       inkscape:collect="always"
       xlink:href="#linearGradient9838"
       id="radialGradient9844"
       cx="25.810114"
       cy="21.990847"
       fx="25.810114"
       fy="21.990847"
       r="21.267771"
       gradientTransform="matrix(1,0,0,0.751396,-1.25,5.467005)"
       gradientUnits="userSpaceOnUse" />
    <linearGradient
       inkscape:collect="always"
       xlink:href="#linearGradient9848"
       id="linearGradient9854"
       x1="28.320078"
       y1="27.337009"
       x2="35.853924"
       y2="31.939751"
       gradientUnits="userSpaceOnUse" />
    <linearGradient
       inkscape:collect="always"
       xlink:href="#linearGradient9858"
       id="linearGradient9864"
       x1="15.507333"
       y1="31.268782"
       x2="15.86392"
       y2="29.893227"
       gradientUnits="userSpaceOnUse" />
    <linearGradient
       inkscape:collect="always"
       xlink:href="#linearGradient9830"
       id="linearGradient9866"
       gradientUnits="userSpaceOnUse"
       x1="23.390572"
       y1="28.367153"
       x2="29.509857"
       y2="41.459667" />
    <radialGradient
       inkscape:collect="always"
       xlink:href="#linearGradient9876"
       id="radialGradient9882"
       cx="9.4112492"
       cy="20.037323"
       fx="9.4112492"
       fy="20.037323"
       r="21.401736"
       gradientTransform="matrix(1,-2.752515e-16,1.857038e-16,0.959333,1.40165,0.640848)"
       gradientUnits="userSpaceOnUse" />
    <linearGradient
       inkscape:collect="always"
       xlink:href="#linearGradient9858"
       id="linearGradient9884"
       gradientUnits="userSpaceOnUse"
       x1="16.36314"
       y1="31.558371"
       x2="16.791044"
       y2="27.069723" />
    <radialGradient
       inkscape:collect="always"
       xlink:href="#linearGradient9888"
       id="radialGradient9894"
       cx="25.5"
       cy="30.25"
       fx="25.5"
       fy="30.25"
       r="21"
       gradientTransform="matrix(1,0,0,0.559524,0,13.3244)"
       gradientUnits="userSpaceOnUse" />
    <linearGradient
       inkscape:collect="always"
       xlink:href="#linearGradient9909"
       id="linearGradient9915"
       x1="18.5625"
       y1="17.109375"
       x2="25.53125"
       y2="23.734375"
       gradientUnits="userSpaceOnUse" />
    <linearGradient
       inkscape:collect="always"
       xlink:href="#linearGradient9830"
       id="linearGradient9917"
       gradientUnits="userSpaceOnUse"
       x1="20.888853"
       y1="32.224407"
       x2="21.230986"
       y2="37.772106" />
  </defs>
  <sodipodi:namedview
     stroke="#ef2929"
     fill="#eeeeec"
     id="base"
     pagecolor="#ffffff"
     bordercolor="#666666"
     borderopacity="0.25490196"
     inkscape:pageopacity="0.0"
     inkscape:pageshadow="2"
     inkscape:zoom="16"
     inkscape:cx="34.383823"
     inkscape:cy="14.300057"
     inkscape:current-layer="layer1"
     showgrid="false"
     inkscape:grid-bbox="true"
     inkscape:document-units="px"
     inkscape:showpageshadow="false"
     inkscape:window-width="1218"
     inkscape:window-height="1062"
     inkscape:window-x="2045"
     inkscape:window-y="14" />
  <metadata
     id="metadata4">
    <rdf:RDF>
      <cc:Work
         rdf:about="">
        <dc:format>image/svg+xml</dc:format>
        <dc:type
           rdf:resource="http://purl.org/dc/dcmitype/StillImage" />
        <dc:creator>
          <cc:Agent>
            <dc:title>Jakub Steiner</dc:title>
          </cc:Agent>
        </dc:creator>
        <dc:source>http://jimmac.musichall.cz</dc:source>
        <cc:license
           rdf:resource="http://creativecommons.org/licenses/by-sa/2.0/" />
        <dc:title>Utility Applications</dc:title>
        <dc:subject>
          <rdf:Bag>
            <rdf:li>utility</rdf:li>
            <rdf:li>applications</rdf:li>
            <rdf:li>category</rdf:li>
            <rdf:li>group</rdf:li>
          </rdf:Bag>
        </dc:subject>
      </cc:Work>
      <cc:License
         rdf:about="http://creativecommons.org/licenses/by-sa/2.0/">
        <cc:permits
           rdf:resource="http://web.resource.org/cc/Reproduction" />
        <cc:permits
           rdf:resource="http://web.resource.org/cc/Distribution" />
        <cc:requires
           rdf:resource="http://web.resource.org/cc/Notice" />
        <cc:requires
           rdf:resource="http://web.resource.org/cc/Attribution" />
        <cc:permits
           rdf:resource="http://web.resource.org/cc/DerivativeWorks" />
        <cc:requires
           rdf:resource="http://web.resource.org/cc/ShareAlike" />
      </cc:License>
    </rdf:RDF>
  </metadata>
  <g
     id="layer1"
     inkscape:label="Layer 1"
     inkscape:groupmode="layer">
    <path
       sodipodi:type="arc"
       style="opacity:0.76373626;color:#000000;fill:url(#radialGradient9894);fill-opacity:1;fill-rule:nonzero;stroke:none;stroke-width:1.0000006;stroke-linecap:butt;stroke-linejoin:miter;marker:none;marker-start:none;marker-mid:none;marker-end:none;stroke-miterlimit:4;stroke-dasharray:none;stroke-dashoffset:0;stroke-opacity:1;visibility:visible;display:inline;overflow:visible"
       id="path9886"
       sodipodi:cx="25.5"
       sodipodi:cy="30.25"
       sodipodi:rx="21"
       sodipodi:ry="11.75"
       d="M 46.5 30.25 A 21 11.75 0 1 1  4.5,30.25 A 21 11.75 0 1 1  46.5 30.25 z"
       inkscape:r_cx="true"
       inkscape:r_cy="true"
       transform="matrix(1,0,0,1.010639,-1.25,1.803192)" />
    <path
       inkscape:r_cy="true"
       inkscape:r_cx="true"
       id="path9816"
       d="M 44.089004,32.319729 C 42.338073,31.086148 32.926821,25.072437 32.926821,25.072437 L 30.519291,15.51218 L 26.579696,16.89996 L 26.798563,21.680087 L 29.643825,23.53046 L 15.63638,13.353413 C 13.99397,13.015245 12.563346,12.912394 13.009983,14.89539 L 19.357107,19.983913 L 9.289256,12.736621 C 7.5753566,12.480557 6.7269327,12.966328 6.6628587,14.1244 L 14.979781,20.446507 L 5.7873931,13.661807 C 3.501664,12.706016 2.4512799,13.260092 2.2855321,14.89539 L 11.259054,21.52589 L 5.1307941,16.89996 C 4.0125384,16.952607 2.8985003,17.010878 3.1609977,18.90453 L 15.63638,33.707508 L 44.089004,32.319729 z "
       style="opacity:1;color:#000000;fill:url(#radialGradient9882);fill-opacity:1;fill-rule:nonzero;stroke:#c4a000;stroke-width:1;stroke-linecap:butt;stroke-linejoin:miter;marker:none;marker-start:none;marker-mid:none;marker-end:none;stroke-miterlimit:4;stroke-dasharray:none;stroke-dashoffset:0;stroke-opacity:1;visibility:visible;display:inline;overflow:visible"
       sodipodi:nodetypes="ccccccccccccccccccc" />
    <path
       transform="matrix(0.726462,-0.128182,3.642568e-2,0.294923,17.74523,27.69705)"
       inkscape:r_cy="true"
       inkscape:r_cx="true"
       d="M 35.88567 33.06237 A 16.351845 6.9826794 0 1 1  3.1819801,33.06237 A 16.351845 6.9826794 0 1 1  35.88567 33.06237 z"
       sodipodi:ry="6.9826794"
       sodipodi:rx="16.351845"
       sodipodi:cy="33.06237"
       sodipodi:cx="19.533825"
       id="path9818"
       style="opacity:1;color:#000000;fill:url(#linearGradient9866);fill-opacity:1;fill-rule:nonzero;stroke:url(#linearGradient9884);stroke-width:2.1372633;stroke-linecap:butt;stroke-linejoin:miter;marker:none;marker-start:none;marker-mid:none;marker-end:none;stroke-miterlimit:4;stroke-dasharray:none;stroke-dashoffset:0;stroke-opacity:1;visibility:visible;display:inline;overflow:visible"
       sodipodi:type="arc" />
    <path
       style="opacity:1;color:#000000;fill:url(#radialGradient9844);fill-opacity:1;fill-rule:nonzero;stroke:#c4a000;stroke-width:0.99999988;stroke-linecap:butt;stroke-linejoin:miter;marker:none;marker-start:none;marker-mid:none;marker-end:none;stroke-miterlimit:4;stroke-dasharray:none;stroke-dashoffset:0;stroke-opacity:1;visibility:visible;display:inline;overflow:visible"
       d="M 5.1181679,33.974501 C 6.8690992,32.220883 14.954526,24.821037 14.954526,24.821037 L 17.362056,11.230489 C 17.362056,11.230489 21.426651,11.890811 21.301651,13.890811 L 22.020284,19.498585 L 19.237521,22.254013 L 31.953914,8.8156855 C 33.516414,7.3156855 36.118223,9.526015 34.621364,10.97868 L 27.46174,18.774858 L 38.40459,6.9098465 C 39.77959,5.6598465 41.929424,7.6248553 40.929424,8.9373553 L 32.705183,18.971681 L 42.148641,8.0141232 C 43.672078,6.1781857 46.277952,8.7746351 45.121702,10.251198 L 36.389299,21.187314 L 41.886275,14.363083 C 43.136275,12.738083 45.864956,14.919822 44.298014,16.809987 C 44.298014,16.809987 34.835669,28.507548 34.708495,30.335035 C 34.434707,34.269336 31.41102,37.680319 31.41102,37.680319 L 5.1181679,33.974501 z "
       id="path9814"
       inkscape:r_cx="true"
       inkscape:r_cy="true"
       sodipodi:nodetypes="cccccccccccccccccscc" />
    <path
       transform="matrix(0.802687,0,0,0.78734,3.06067,9.477864)"
       style="opacity:0.74175822;color:#000000;fill:none;fill-opacity:1;fill-rule:nonzero;stroke:url(#linearGradient9854);stroke-width:1.25789952;stroke-linecap:butt;stroke-linejoin:miter;stroke-miterlimit:4;stroke-dashoffset:0;stroke-opacity:1;marker:none;marker-start:none;marker-mid:none;marker-end:none;visibility:visible;display:inline;overflow:visible"
       d="M 36.197124,33.935563 C 36.773635,37.72817 28.248589,39.092476 19.222371,39.092476 C 10.196153,39.092476 3.1819801,36.916809 3.1819801,33.06237 C 3.1819801,29.207931 10.532142,23.801125 18.404805,28.302364 C 26.105404,32.705226 35.729151,30.856983 36.197124,33.935563 z "
       id="path9846"
       sodipodi:nodetypes="cssss" />
    <path
       transform="matrix(0.876366,0,0,0.863289,0.7849,8.006006)"
       style="color:#000000;fill:url(#linearGradient9917);fill-opacity:1;fill-rule:nonzero;stroke:url(#linearGradient9864);stroke-width:1.14968634;stroke-linecap:butt;stroke-linejoin:miter;stroke-miterlimit:4;stroke-dashoffset:0;stroke-opacity:1;marker:none;marker-start:none;marker-mid:none;marker-end:none;visibility:visible;display:inline;overflow:visible"
       d="M 35.315132,33.06237 C 35.315132,36.916809 28.560043,37.728329 19.533825,37.728329 C 10.507607,37.728329 3.1819801,36.916809 3.1819801,33.06237 C 3.1819801,29.207931 11.899224,24.000895 19.819094,28.396412 C 26.907606,32.330528 34.757885,30.339307 35.315132,33.06237 z "
       id="path9812"
       sodipodi:nodetypes="csssc" />
    <path
       style="opacity:0.91208791;color:#000000;fill:url(#linearGradient9915);fill-opacity:1.0;fill-rule:nonzero;stroke:none;stroke-width:1;stroke-linecap:butt;stroke-linejoin:miter;marker:none;marker-start:none;marker-mid:none;marker-end:none;stroke-miterlimit:4;stroke-dasharray:none;stroke-dashoffset:0;stroke-opacity:1;visibility:visible;display:inline;overflow:visible"
       d="M 17.78125,11.84375 L 15.4375,25.125 L 9.125,30.875 C 9.9095813,30.574629 11.3125,30.375 11.3125,30.375 L 11.4375,30.25 L 11.46875,30.25 C 12.336139,30.261423 19.377044,30.269746 22.8125,27.5625 C 26.448357,24.697331 26.145391,18.338175 29.807138,12.573223 C 22.947153,19.349319 19.702987,22.395486 16.5,25.21875 L 18.375,12.5625 C 18.375,12.5625 19.904247,13.007392 20.34375,13.75 C 20.736749,14.414032 21.271443,18.02442 21.40625,18.96875 C 21.32755,17.965641 21.020677,13.984776 20.71875,13.375 C 20.715984,13.369974 20.690261,13.348198 20.6875,13.34375 C 20.681913,13.335924 20.662015,13.320265 20.65625,13.3125 C 19.907768,12.341902 17.78125,11.84375 17.78125,11.84375 z "
       id="path9820"
       sodipodi:nodetypes="ccccccscccscsssc" />
    <path
       style="opacity:0.7;color:#000000;fill:#ffffff;fill-opacity:1;fill-rule:nonzero;stroke:none;stroke-width:1;stroke-linecap:butt;stroke-linejoin:miter;marker:none;marker-start:none;marker-mid:none;marker-end:none;stroke-miterlimit:4;stroke-dasharray:none;stroke-dashoffset:0;stroke-opacity:1;visibility:visible;display:inline;overflow:visible"
       d="M 19.59375,22.59375 L 32.330644,9.1849538 C 32.645527,8.8258761 33.388914,8.3756452 34.163182,9.1499126 C 34.915037,9.9017679 34.353066,10.534879 34.286774,10.60117 L 28.1875,17.25 L 33.641085,10.345808 C 33.641085,10.345808 33.699842,9.8803671 33.45911,9.6821382 C 33.20719,9.4746974 32.878467,9.4370121 32.657496,9.7463713 L 19.59375,22.59375 z "
       id="path9822"
       inkscape:r_cx="true"
       inkscape:r_cy="true"
       sodipodi:nodetypes="cczccczcc" />
    <path
       sodipodi:nodetypes="cczccczcc"
       inkscape:r_cy="true"
       inkscape:r_cx="true"
       id="path9824"
       d="M 28.875,17.90625 L 38.715447,7.307043 C 39.03033,6.9479653 39.786865,6.8305035 40.348001,7.3916401 C 40.92308,7.9667184 40.610879,8.6208165 40.544587,8.6871075 L 34.4375,15.96875 L 39.703585,8.720808 C 39.703585,8.720808 40.227951,8.274323 39.766248,7.8551237 C 39.307565,7.4386658 39.018862,8.032523 39.018862,8.032523 L 28.875,17.90625 z "
       style="opacity:0.7;color:#000000;fill:#ffffff;fill-opacity:1;fill-rule:nonzero;stroke:none;stroke-width:1;stroke-linecap:butt;stroke-linejoin:miter;marker:none;marker-start:none;marker-mid:none;marker-end:none;stroke-miterlimit:4;stroke-dasharray:none;stroke-dashoffset:0;stroke-opacity:1;visibility:visible;display:inline;overflow:visible" />
    <path
       style="opacity:0.7;color:#000000;fill:#ffffff;fill-opacity:1;fill-rule:nonzero;stroke:none;stroke-width:1;stroke-linecap:butt;stroke-linejoin:miter;marker:none;marker-start:none;marker-mid:none;marker-end:none;stroke-miterlimit:4;stroke-dasharray:none;stroke-dashoffset:0;stroke-opacity:1;visibility:visible;display:inline;overflow:visible"
       d="M 33.549327,18.983916 L 42.561649,8.2909585 C 42.898629,7.8655892 43.717234,7.7379113 44.423216,8.3989925 C 45.118076,9.0496582 44.911316,9.6714827 44.672039,9.9835225 L 38.783702,17.358916 L 43.924787,9.5172235 C 43.924787,9.5172235 44.042903,9.1644885 43.7687,8.9015385 C 43.461544,8.6069878 43.021314,8.9851885 43.021314,8.9851885 L 33.549327,18.983916 z "
       id="path9826"
       inkscape:r_cx="true"
       inkscape:r_cy="true"
       sodipodi:nodetypes="cczccczcc" />
    <path
       sodipodi:nodetypes="cczccczcc"
       inkscape:r_cy="true"
       inkscape:r_cx="true"
       id="path9828"
       d="M 36.175089,22.116386 L 42.364021,14.632869 C 42.85568,14.119111 43.555565,14.244105 43.942116,14.698605 C 44.319239,15.142018 44.366146,15.899768 43.950092,16.421729 L 38.052928,24.311041 L 43.292799,16.006231 C 43.292799,16.006231 43.473619,15.741048 43.263608,15.531037 C 43.046309,15.313738 42.814857,15.482103 42.814857,15.482103 L 36.175089,22.116386 z "
       style="opacity:0.7;color:#000000;fill:#ffffff;fill-opacity:1;fill-rule:nonzero;stroke:none;stroke-width:1;stroke-linecap:butt;stroke-linejoin:miter;marker:none;marker-start:none;marker-mid:none;marker-end:none;stroke-miterlimit:4;stroke-dasharray:none;stroke-dashoffset:0;stroke-opacity:1;visibility:visible;display:inline;overflow:visible" />
    <path
       style="opacity:0.74175822;color:#000000;fill:#ffffff;fill-opacity:1;fill-rule:nonzero;stroke:none;stroke-width:1;stroke-linecap:butt;stroke-linejoin:miter;marker:none;marker-start:none;marker-mid:none;marker-end:none;stroke-miterlimit:4;stroke-dasharray:none;stroke-dashoffset:0;stroke-opacity:1;visibility:visible;display:inline;overflow:visible"
       d="M 4.4952426,37.83534 C 5.1581552,39.625204 11.345339,40.196048 18.107048,40.129757 C 24.868757,40.063466 29.249723,39.651092 30.854577,37.570175 C 27.980766,39.068003 21.617712,39.047651 18.107048,39.047651 C 14.658865,39.047651 7.7951237,39.34322 4.4952426,37.83534 z "
       id="path9856"
       inkscape:r_cx="true"
       inkscape:r_cy="true"
       sodipodi:nodetypes="czczc" />
  </g>
</svg>
