<?xml version="1.0" encoding="UTF-8" standalone="no"?>
<!-- Created with Inkscape (http://www.inkscape.org/) -->
<svg
   xmlns:dc="http://purl.org/dc/elements/1.1/"
   xmlns:cc="http://web.resource.org/cc/"
   xmlns:rdf="http://www.w3.org/1999/02/22-rdf-syntax-ns#"
   xmlns:svg="http://www.w3.org/2000/svg"
   xmlns="http://www.w3.org/2000/svg"
   xmlns:xlink="http://www.w3.org/1999/xlink"
   xmlns:sodipodi="http://inkscape.sourceforge.net/DTD/sodipodi-0.dtd"
   xmlns:inkscape="http://www.inkscape.org/namespaces/inkscape"
   width="48.000000px"
   height="48.000000px"
   id="svg3077"
   sodipodi:version="0.32"
   inkscape:version="0.43+devel"
   sodipodi:docbase="/home/tigert/cvs/freedesktop.org/tango-icon-theme/scalable/devices"
   sodipodi:docname="media-cdrom.svg"
   inkscape:output_extension="org.inkscape.output.svg.inkscape">
  <defs
     id="defs3">
    <linearGradient
       id="linearGradient3435"
       gradientUnits="userSpaceOnUse"
       x1="12.2744"
       y1="32.4165"
       x2="35.3912"
       y2="14.2033">
      <stop
         offset="0.0000000"
         style="stop-color:#ffffc8;stop-opacity:1.0000000;"
         id="stop3437" />
      <stop
         offset="1.0000000"
         style="stop-color:#9a91ef;stop-opacity:0.0000000;"
         id="stop3439" />
    </linearGradient>
    <linearGradient
       y2="14.2033"
       x2="35.3912"
       y1="32.4165"
       x1="12.2744"
       gradientUnits="userSpaceOnUse"
       id="linearGradient3421">
      <stop
         id="stop3423"
         style="stop-color:#ffffff;stop-opacity:1.0000000;"
         offset="0.0000000" />
      <stop
         id="stop3427"
         style="stop-color:#b8c04c;stop-opacity:0.0000000;"
         offset="1.0000000" />
    </linearGradient>
    <linearGradient
       id="linearGradient3406"
       gradientUnits="userSpaceOnUse"
       x1="12.2744"
       y1="32.4165"
       x2="35.3912"
       y2="14.2033">
      <stop
         offset="0.0000000"
         style="stop-color:#b307ff;stop-opacity:0.82178217;"
         id="stop3408" />
      <stop
         offset="1.0000000"
         style="stop-color:#f0ff8b;stop-opacity:0.64356434;"
         id="stop3410" />
      <stop
         offset="1.0000000"
         style="stop-color:#ffffff;stop-opacity:0.0000000;"
         id="stop3412" />
    </linearGradient>
    <linearGradient
       y2="14.2033"
       x2="35.3912"
       y1="32.4165"
       x1="12.2744"
       gradientUnits="userSpaceOnUse"
       id="linearGradient3394">
      <stop
         id="stop3396"
         style="stop-color:#fff307;stop-opacity:1.0000000;"
         offset="0.0000000" />
      <stop
         id="stop3398"
         style="stop-color:#166eff;stop-opacity:1.0000000;"
         offset="0.50000000" />
      <stop
         id="stop3400"
         style="stop-color:#ffffff;stop-opacity:0.0000000;"
         offset="1.0000000" />
    </linearGradient>
    <linearGradient
       inkscape:collect="always"
       id="linearGradient6036">
      <stop
         style="stop-color:#ffffff;stop-opacity:1;"
         offset="0"
         id="stop6038" />
      <stop
         style="stop-color:#ffffff;stop-opacity:0;"
         offset="1"
         id="stop6040" />
    </linearGradient>
    <linearGradient
       inkscape:collect="always"
       id="linearGradient6028">
      <stop
         style="stop-color:#ffffff;stop-opacity:1;"
         offset="0"
         id="stop6030" />
      <stop
         style="stop-color:#ffffff;stop-opacity:0;"
         offset="1"
         id="stop6032" />
    </linearGradient>
    <linearGradient
       id="linearGradient4236">
      <stop
         style="stop-color:#ffffff;stop-opacity:0.32673267;"
         offset="0.0000000"
         id="stop4238" />
      <stop
         style="stop-color:#ffffff;stop-opacity:0.60396039;"
         offset="1.0000000"
         id="stop4240" />
    </linearGradient>
    <linearGradient
       id="aigrd2"
       gradientUnits="userSpaceOnUse"
       x1="12.2744"
       y1="32.4165"
       x2="35.3912"
       y2="14.2033">
      <stop
         offset="0"
         style="stop-color:#FBFBFB"
         id="stop3043" />
      <stop
         offset="0.5"
         style="stop-color:#B6B6B6"
         id="stop3045" />
      <stop
         offset="1"
         style="stop-color:#E4E4E4"
         id="stop3047" />
    </linearGradient>
    <linearGradient
       id="aigrd1"
       gradientUnits="userSpaceOnUse"
       x1="14.9966"
       y1="11.1885"
       x2="32.511"
       y2="34.3075">
      <stop
         offset="0"
         style="stop-color:#EBEBEB"
         id="stop3034" />
      <stop
         offset="0.5"
         style="stop-color:#FFFFFF"
         id="stop3036" />
      <stop
         offset="1"
         style="stop-color:#EBEBEB"
         id="stop3038" />
    </linearGradient>
    <linearGradient
       inkscape:collect="always"
       xlink:href="#aigrd1"
       id="linearGradient3912"
       gradientUnits="userSpaceOnUse"
       x1="14.9966"
       y1="11.1885"
       x2="32.511"
       y2="34.3075"
       gradientTransform="matrix(1.190476,0.000000,0.000000,1.190476,-4.224424,-2.500000)" />
    <linearGradient
       inkscape:collect="always"
       xlink:href="#linearGradient4236"
       id="linearGradient4222"
       x1="21.125000"
       y1="14.625000"
       x2="29.000000"
       y2="28.000000"
       gradientUnits="userSpaceOnUse"
       gradientTransform="matrix(1.250000,0.000000,0.000000,1.250000,-5.652995,-2.604165)" />
    <linearGradient
       inkscape:collect="always"
       xlink:href="#linearGradient4236"
       id="linearGradient4224"
       x1="21.125000"
       y1="14.625000"
       x2="29.000000"
       y2="28.000000"
       gradientUnits="userSpaceOnUse"
       gradientTransform="matrix(1.250000,0.000000,0.000000,1.250000,-5.652995,-2.604165)" />
    <linearGradient
       inkscape:collect="always"
       xlink:href="#aigrd2"
       id="linearGradient4242"
       gradientUnits="userSpaceOnUse"
       gradientTransform="matrix(1.190476,0.000000,0.000000,1.190476,-4.224424,-2.500001)"
       x1="12.2744"
       y1="32.4165"
       x2="35.3912"
       y2="14.2033" />
    <linearGradient
       inkscape:collect="always"
       xlink:href="#linearGradient6028"
       id="linearGradient6034"
       x1="28.702885"
       y1="31.494707"
       x2="17.742729"
       y2="18.366575"
       gradientUnits="userSpaceOnUse" />
    <linearGradient
       inkscape:collect="always"
       xlink:href="#linearGradient6036"
       id="linearGradient6042"
       x1="10.501720"
       y1="3.6100161"
       x2="48.798885"
       y2="54.698483"
       gradientUnits="userSpaceOnUse" />
    <radialGradient
       gradientTransform="matrix(0.848684,0.958020,-0.782119,0.692834,18.69147,-20.52578)"
       gradientUnits="userSpaceOnUse"
       r="21.333334"
       fy="27.569166"
       fx="37.751469"
       cy="27.569166"
       cx="37.751469"
       id="radialGradient3392"
       xlink:href="#linearGradient3394"
       inkscape:collect="always" />
    <radialGradient
       r="21.333334"
       fy="48.238270"
       fx="53.556889"
       cy="48.238270"
       cx="53.556889"
       gradientTransform="matrix(0.158450,-0.158988,0.432907,0.431441,-2.723645,15.00107)"
       gradientUnits="userSpaceOnUse"
       id="radialGradient3429"
       xlink:href="#linearGradient3421"
       inkscape:collect="always" />
    <radialGradient
       r="21.333334"
       fy="33.377594"
       fx="16.885271"
       cy="33.377594"
       cx="16.885271"
       gradientTransform="matrix(5.184267e-3,-0.122860,0.544548,2.297824e-2,0.957234,26.30756)"
       gradientUnits="userSpaceOnUse"
       id="radialGradient3433"
       xlink:href="#linearGradient3435"
       inkscape:collect="always" />
    <radialGradient
       r="21.333334"
       fy="21.618015"
       fx="35.511295"
       cy="21.618015"
       cx="35.511295"
       gradientTransform="matrix(0.105916,-1.914240e-2,0.104789,0.579807,17.13693,7.115158)"
       gradientUnits="userSpaceOnUse"
       id="radialGradient3443"
       xlink:href="#linearGradient3435"
       inkscape:collect="always" />
    <radialGradient
       gradientTransform="matrix(-5.048220e-2,1.387847e-2,-0.128440,-0.467196,35.41257,39.44172)"
       r="21.333334"
       fy="23.914305"
       fx="133.84108"
       cy="23.914305"
       cx="133.84108"
       gradientUnits="userSpaceOnUse"
       id="radialGradient3447"
       xlink:href="#linearGradient3435"
       inkscape:collect="always" />
    <radialGradient
       r="21.333334"
       fy="38.807304"
       fx="26.137741"
       cy="38.807304"
       cx="26.137741"
       gradientTransform="matrix(0.769501,-1.242500,0.670300,0.415141,-21.77857,41.36563)"
       gradientUnits="userSpaceOnUse"
       id="radialGradient3449"
       xlink:href="#linearGradient3406"
       inkscape:collect="always" />
  </defs>
  <sodipodi:namedview
     id="base"
     pagecolor="#ffffff"
     bordercolor="#666666"
     borderopacity="0.25490196"
     inkscape:pageopacity="0.0"
     inkscape:pageshadow="2"
     inkscape:zoom="5.6568542"
     inkscape:cx="12.398796"
     inkscape:cy="29.17321"
     inkscape:current-layer="layer1"
     showgrid="false"
     inkscape:grid-bbox="true"
     inkscape:document-units="px"
     inkscape:window-width="803"
     inkscape:window-height="804"
     inkscape:window-x="122"
     inkscape:window-y="20"
     inkscape:showpageshadow="false" />
  <metadata
     id="metadata4">
    <rdf:RDF>
      <cc:Work
         rdf:about="">
        <dc:format>image/svg+xml</dc:format>
        <dc:type
           rdf:resource="http://purl.org/dc/dcmitype/StillImage" />
        <dc:title>Media CD-ROM</dc:title>
        <dc:creator>
          <cc:Agent>
            <dc:title>Jakub Steiner</dc:title>
          </cc:Agent>
        </dc:creator>
        <dc:source>http://jimmac.musichall.cz</dc:source>
        <dc:subject>
          <rdf:Bag>
            <rdf:li>cdrom</rdf:li>
            <rdf:li>media</rdf:li>
            <rdf:li>removable</rdf:li>
            <rdf:li>cd</rdf:li>
            <rdf:li>audio</rdf:li>
          </rdf:Bag>
        </dc:subject>
        <cc:license
           rdf:resource="http://creativecommons.org/licenses/by-sa/2.0/" />
      </cc:Work>
      <cc:License
         rdf:about="http://creativecommons.org/licenses/by-sa/2.0/">
        <cc:permits
           rdf:resource="http://web.resource.org/cc/Reproduction" />
        <cc:permits
           rdf:resource="http://web.resource.org/cc/Distribution" />
        <cc:requires
           rdf:resource="http://web.resource.org/cc/Notice" />
        <cc:requires
           rdf:resource="http://web.resource.org/cc/Attribution" />
        <cc:permits
           rdf:resource="http://web.resource.org/cc/DerivativeWorks" />
        <cc:requires
           rdf:resource="http://web.resource.org/cc/ShareAlike" />
      </cc:License>
    </rdf:RDF>
  </metadata>
  <g
     id="layer1"
     inkscape:label="Layer 1"
     inkscape:groupmode="layer">
    <g
       transform="matrix(1.190476,0.000000,0.000000,1.190476,-4.224424,-2.500000)"
       id="Layer_x0020_2"
       style="fill-rule:nonzero;stroke:#000000;stroke-miterlimit:4.0000000">
      <g
         style="stroke:none"
         id="g3002">
        <g
           id="g3004">
          <path
             style="opacity:0.0000000"
             d="M 24.000000,31.000000 C 12.400000,31.000000 3.0000000,33.600000 3.0000000,36.900000 C 3.0000000,40.200000 12.400000,42.800000 24.000000,42.800000 C 35.600000,42.800000 45.000000,40.200000 45.000000,36.900000 C 45.000000,33.600000 35.600000,31.000000 24.000000,31.000000 z M 24.000000,38.300000 C 21.200000,38.300000 19.000000,37.700000 19.000000,36.900000 C 19.000000,36.100000 21.300000,35.500000 24.000000,35.500000 C 26.800000,35.500000 29.000000,36.100000 29.000000,36.900000 C 29.000000,37.700000 26.700000,38.300000 24.000000,38.300000 z "
             id="path3006" />
          <path
             style="opacity:0.0063636308"
             d="M 24.000000,31.200000 C 12.800000,31.200000 3.8000000,33.700000 3.8000000,36.900000 C 3.8000000,40.100000 12.900000,42.600000 24.000000,42.600000 C 35.200000,42.600000 44.200000,40.100000 44.200000,36.900000 C 44.200000,33.700000 35.100000,31.200000 24.000000,31.200000 L 24.000000,31.200000 z M 24.000000,38.200000 C 21.300000,38.200000 19.100000,37.600000 19.100000,36.800000 C 19.100000,36.000000 21.300000,35.400000 24.000000,35.400000 C 26.700000,35.400000 28.900000,36.000000 28.900000,36.800000 C 28.900000,37.600000 26.700000,38.200000 24.000000,38.200000 z "
             id="path3008" />
          <path
             style="opacity:0.012727262"
             d="M 24.000000,31.400000 C 13.200000,31.400000 4.5000000,33.800000 4.5000000,36.900000 C 4.5000000,39.900000 13.200000,42.400000 24.000000,42.400000 C 34.800000,42.400000 43.500000,40.000000 43.500000,36.900000 C 43.500000,33.900000 34.800000,31.400000 24.000000,31.400000 z M 24.000000,38.200000 C 21.400000,38.200000 19.300000,37.600000 19.300000,36.900000 C 19.300000,36.200000 21.400000,35.600000 24.000000,35.600000 C 26.600000,35.600000 28.700000,36.200000 28.700000,36.900000 C 28.700000,37.600000 26.600000,38.200000 24.000000,38.200000 z "
             id="path3010" />
          <path
             style="opacity:0.019090893"
             d="M 24.000000,31.600000 C 13.700000,31.600000 5.3000000,33.900000 5.3000000,36.800000 C 5.3000000,39.700000 13.700000,42.000000 24.000000,42.000000 C 34.300000,42.000000 42.700000,39.700000 42.700000,36.800000 C 42.700000,33.900000 34.300000,31.600000 24.000000,31.600000 L 24.000000,31.600000 z M 24.000000,38.100000 C 21.500000,38.100000 19.500000,37.500000 19.500000,36.800000 C 19.500000,36.100000 21.500000,35.500000 24.000000,35.500000 C 26.500000,35.500000 28.500000,36.100000 28.500000,36.800000 C 28.500000,37.500000 26.500000,38.100000 24.000000,38.100000 z "
             id="path3012" />
          <path
             style="opacity:0.025454523"
             d="M 24.000000,31.900000 C 14.100000,31.900000 6.1000000,34.100000 6.1000000,36.900000 C 6.1000000,39.700000 14.100000,41.900000 24.000000,41.900000 C 33.900000,41.900000 41.900000,39.700000 41.900000,36.900000 C 41.900000,34.100000 33.900000,31.900000 24.000000,31.900000 z M 24.000000,38.100000 C 21.600000,38.100000 19.700000,37.600000 19.700000,36.900000 C 19.700000,36.200000 21.600000,35.700000 24.000000,35.700000 C 26.400000,35.700000 28.300000,36.200000 28.300000,36.900000 C 28.300000,37.600000 26.400000,38.100000 24.000000,38.100000 z "
             id="path3014" />
          <path
             style="opacity:0.031818155"
             d="M 24.000000,32.100000 C 14.500000,32.100000 6.9000000,34.300000 6.9000000,36.900000 C 6.9000000,39.500000 14.600000,41.700000 24.000000,41.700000 C 33.500000,41.700000 41.100000,39.600000 41.100000,36.900000 C 41.100000,34.200000 33.400000,32.100000 24.000000,32.100000 z M 24.000000,38.000000 C 21.700000,38.000000 19.900000,37.500000 19.900000,36.800000 C 19.900000,36.200000 21.700000,35.600000 24.000000,35.600000 C 26.300000,35.600000 28.100000,36.100000 28.100000,36.800000 C 28.100000,37.400000 26.300000,38.000000 24.000000,38.000000 z "
             id="path3016" />
          <path
             style="opacity:0.038181785"
             d="M 24.000000,32.300000 C 15.000000,32.300000 7.6000000,34.400000 7.6000000,36.900000 C 7.6000000,39.400000 14.900000,41.500000 24.000000,41.500000 C 33.000000,41.500000 40.400000,39.400000 40.400000,36.900000 C 40.400000,34.400000 33.100000,32.300000 24.000000,32.300000 z M 24.000000,38.000000 C 21.800000,38.000000 20.100000,37.500000 20.100000,36.900000 C 20.100000,36.300000 21.900000,35.800000 24.000000,35.800000 C 26.100000,35.800000 27.900000,36.300000 27.900000,36.900000 C 27.900000,37.500000 26.100000,38.000000 24.000000,38.000000 z "
             id="path3018" />
          <path
             style="opacity:0.044545416"
             d="M 24.000000,32.500000 C 15.400000,32.500000 8.4000000,34.500000 8.4000000,36.900000 C 8.4000000,39.300000 15.400000,41.300000 24.000000,41.300000 C 32.600000,41.300000 39.600000,39.300000 39.600000,36.900000 C 39.600000,34.500000 32.600000,32.500000 24.000000,32.500000 z M 24.000000,37.900000 C 21.900000,37.900000 20.300000,37.400000 20.300000,36.900000 C 20.300000,36.300000 22.000000,35.900000 24.000000,35.900000 C 26.000000,35.900000 27.700000,36.400000 27.700000,36.900000 C 27.700000,37.500000 26.000000,37.900000 24.000000,37.900000 z "
             id="path3020" />
          <path
             style="opacity:0.050909046"
             d="M 24.000000,32.700000 C 15.800000,32.700000 9.2000000,34.600000 9.2000000,36.900000 C 9.2000000,39.200000 15.800000,41.100000 24.000000,41.100000 C 32.200000,41.100000 38.800000,39.200000 38.800000,36.900000 C 38.800000,34.600000 32.200000,32.700000 24.000000,32.700000 L 24.000000,32.700000 z M 24.000000,37.900000 C 22.000000,37.900000 20.400000,37.500000 20.400000,36.900000 C 20.400000,36.400000 22.000000,35.900000 24.000000,35.900000 C 26.000000,35.900000 27.600000,36.300000 27.600000,36.900000 C 27.600000,37.400000 26.000000,37.900000 24.000000,37.900000 z "
             id="path3022" />
          <path
             style="opacity:0.057272676"
             d="M 24.000000,32.900000 C 16.200000,32.900000 9.9000000,34.700000 9.9000000,36.800000 C 9.9000000,38.900000 16.200000,40.700000 24.000000,40.700000 C 31.800000,40.700000 38.100000,38.900000 38.100000,36.800000 C 38.100000,34.700000 31.800000,32.900000 24.000000,32.900000 z M 24.000000,37.800000 C 22.100000,37.800000 20.600000,37.400000 20.600000,36.900000 C 20.600000,36.400000 22.100000,36.000000 24.000000,36.000000 C 25.900000,36.000000 27.400000,36.400000 27.400000,36.900000 C 27.400000,37.400000 25.900000,37.800000 24.000000,37.800000 z "
             id="path3024" />
          <path
             style="opacity:0.063636310"
             d="M 24.000000,33.100000 C 16.700000,33.100000 10.700000,34.800000 10.700000,36.800000 C 10.700000,38.900000 16.600000,40.500000 24.000000,40.500000 C 31.300000,40.500000 37.300000,38.800000 37.300000,36.800000 C 37.300000,34.700000 31.400000,33.100000 24.000000,33.100000 L 24.000000,33.100000 z M 24.000000,37.800000 C 22.200000,37.800000 20.800000,37.400000 20.800000,36.900000 C 20.800000,36.400000 22.200000,36.000000 24.000000,36.000000 C 25.800000,36.000000 27.200000,36.400000 27.200000,36.900000 C 27.200000,37.400000 25.800000,37.800000 24.000000,37.800000 z "
             id="path3026" />
          <path
             style="opacity:0.070000000"
             d="M 24.000000,33.400000 C 17.100000,33.400000 11.500000,35.000000 11.500000,36.900000 C 11.500000,38.800000 17.100000,40.400000 24.000000,40.400000 C 30.900000,40.400000 36.500000,38.800000 36.500000,36.900000 C 36.500000,35.000000 31.000000,33.400000 24.000000,33.400000 z M 24.000000,37.700000 C 22.300000,37.700000 21.000000,37.300000 21.000000,36.900000 C 21.000000,36.400000 22.300000,36.100000 24.000000,36.100000 C 25.700000,36.100000 27.000000,36.500000 27.000000,36.900000 C 27.000000,37.400000 25.700000,37.700000 24.000000,37.700000 z "
             id="path3028" />
        </g>
      </g>
    </g>
    <path
       id="path3040"
       d="M 24.347006,4.1666669 C 12.799386,4.1666669 3.5136719,13.452381 3.5136719,25.000000 C 3.5136719,36.547620 12.799386,45.833335 24.347006,45.833335 C 35.894626,45.833335 45.180341,36.547620 45.180341,25.000000 C 45.180341,13.452381 35.894626,4.1666669 24.347006,4.1666669 L 24.347006,4.1666669 z M 24.347006,30.000001 C 21.608911,30.000001 19.347006,27.738096 19.347006,25.000000 C 19.347006,22.261905 21.608911,20.000000 24.347006,20.000000 C 27.085101,20.000000 29.347006,22.261905 29.347006,25.000000 C 29.347006,27.738096 27.085101,30.000001 24.347006,30.000001 z "
       style="fill:url(#linearGradient3912);fill-rule:nonzero;stroke:none;stroke-miterlimit:4.0000000" />
    <path
       id="path3049"
       d="M 24.347006,4.1666665 C 12.799386,4.1666665 3.5136720,13.452381 3.5136720,25.000000 C 3.5136720,36.547620 12.799386,45.833335 24.347006,45.833335 C 35.894626,45.833335 45.180341,36.547620 45.180341,25.000000 C 45.180341,13.452381 35.894626,4.1666665 24.347006,4.1666665 L 24.347006,4.1666665 z M 24.347006,30.000001 C 21.608911,30.000001 19.347006,27.738096 19.347006,25.000000 C 19.347006,22.261905 21.608911,20.000000 24.347006,20.000000 C 27.085101,20.000000 29.347006,22.261905 29.347006,25.000000 C 29.347006,27.738096 27.085101,30.000001 24.347006,30.000001 z "
       style="fill:url(#linearGradient4242);fill-rule:nonzero;stroke:#808080;stroke-miterlimit:4.0000000;stroke-opacity:1.0000000" />
    <path
       id="path3051"
       d="M 24.347006,14.895835 C 18.704420,14.895835 14.242840,19.488638 14.242840,25.000000 C 14.242840,30.642588 18.835644,35.104166 24.347006,35.104166 C 29.989592,35.104166 34.451172,30.511364 34.451172,25.000000 C 34.451172,19.357414 29.858368,14.895835 24.347006,14.895835 L 24.347006,14.895835 z M 24.347006,30.511364 C 21.328879,30.511364 18.835644,28.018129 18.835644,25.000000 C 18.835644,21.981873 21.328879,19.488638 24.347006,19.488638 C 27.365133,19.488638 29.858368,21.981873 29.858368,25.000000 C 29.858368,28.018129 27.365133,30.511364 24.347006,30.511364 z "
       style="opacity:0.10999996;fill-rule:nonzero;stroke:none;stroke-miterlimit:4.0000000" />
    <path
       style="fill:url(#linearGradient4224);fill-opacity:1.0000000;fill-rule:nonzero;stroke:none;stroke-miterlimit:4.0000000;stroke-opacity:1.0000000"
       d="M 29.922111,5.6692337 L 26.325518,19.663896 C 27.450222,19.963413 28.349661,20.659366 28.960646,21.622438 L 41.352866,14.073153 C 38.817618,9.9434382 34.748656,6.9050853 29.922111,5.6692337 z "
       id="path3916" />
    <path
       id="path4214"
       d="M 17.307824,43.766057 L 22.043079,30.114558 C 20.946815,29.723566 20.107654,28.956005 19.577936,27.945951 L 6.6068752,34.450599 C 8.7939325,38.774811 12.599255,42.137482 17.307824,43.766057 z "
       style="fill:url(#linearGradient4222);fill-opacity:1.0000000;fill-rule:nonzero;stroke:none;stroke-miterlimit:4.0000000;stroke-opacity:1.0000000" />
    <path
       style="fill:none;fill-rule:nonzero;stroke:url(#linearGradient6042);stroke-miterlimit:4.0000000;stroke-opacity:1.0000000;opacity:0.54644809"
       d="M 24.347002,5.2023655 C 13.373458,5.2023655 4.5493711,14.026454 4.5493711,24.999997 C 4.5493711,35.973541 13.373458,44.797628 24.347002,44.797628 C 35.320546,44.797628 44.144633,35.973541 44.144633,24.999997 C 44.144633,14.026454 35.320546,5.2023655 24.347002,5.2023655 L 24.347002,5.2023655 z "
       id="path5264"
       sodipodi:nodetypes="cccccc" />
    <path
       sodipodi:type="arc"
       style="overflow:visible;display:inline;visibility:visible;marker-end:none;marker-mid:none;marker-start:none;marker:none;stroke-opacity:1.0000000;stroke-dashoffset:0.0000000;stroke-miterlimit:4.0000000;stroke-linejoin:miter;stroke-linecap:butt;stroke-width:0.93053865;stroke:url(#linearGradient6034);fill-rule:nonzero;fill-opacity:0.31638417;fill:none;color:#000000;opacity:0.67213115"
       id="path6026"
       sodipodi:cx="24.306795"
       sodipodi:cy="24.930641"
       sodipodi:rx="6.0987959"
       sodipodi:ry="6.0987959"
       d="M 30.405591 24.930641 A 6.0987959 6.0987959 0 1 1  18.207999,24.930641 A 6.0987959 6.0987959 0 1 1  30.405591 24.930641 z"
       transform="translate(8.838835e-2,8.838865e-2)" />
    <path
       style="opacity:0.11428571;stroke-opacity:1.0000000;stroke-miterlimit:4.0000000;stroke:none;fill-rule:nonzero;fill:url(#radialGradient3392);fill-opacity:1.0"
       d="M 24.347006,4.1666665 C 12.799386,4.1666665 3.5136720,13.452381 3.5136720,25.000000 C 3.5136720,36.547620 12.799386,45.833335 24.347006,45.833335 C 35.894626,45.833335 45.180341,36.547620 45.180341,25.000000 C 45.180341,13.452381 35.894626,4.1666665 24.347006,4.1666665 L 24.347006,4.1666665 z M 24.347006,30.000001 C 21.608911,30.000001 19.347006,27.738096 19.347006,25.000000 C 19.347006,22.261905 21.608911,20.000000 24.347006,20.000000 C 27.085101,20.000000 29.347006,22.261905 29.347006,25.000000 C 29.347006,27.738096 27.085101,30.000001 24.347006,30.000001 z "
       id="path3390" />
    <path
       id="path3404"
       d="M 24.347006,4.1666665 C 12.799386,4.1666665 3.5136720,13.452381 3.5136720,25.000000 C 3.5136720,36.547620 12.799386,45.833335 24.347006,45.833335 C 35.894626,45.833335 45.180341,36.547620 45.180341,25.000000 C 45.180341,13.452381 35.894626,4.1666665 24.347006,4.1666665 L 24.347006,4.1666665 z M 24.347006,30.000001 C 21.608911,30.000001 19.347006,27.738096 19.347006,25.000000 C 19.347006,22.261905 21.608911,20.000000 24.347006,20.000000 C 27.085101,20.000000 29.347006,22.261905 29.347006,25.000000 C 29.347006,27.738096 27.085101,30.000001 24.347006,30.000001 z "
       style="opacity:0.097142857;stroke-opacity:1.0000000;stroke-miterlimit:4.0000000;stroke:none;fill-rule:nonzero;fill:url(#radialGradient3449);fill-opacity:1.0" />
    <path
       style="fill-opacity:1.0;fill:url(#radialGradient3429);fill-rule:nonzero;stroke:none;stroke-miterlimit:4.0000000;stroke-opacity:1.0000000;opacity:0.71428571"
       d="M 24.347006,4.1666665 C 12.799386,4.1666665 3.5136720,13.452381 3.5136720,25.000000 C 3.5136720,36.547620 12.799386,45.833335 24.347006,45.833335 C 35.894626,45.833335 45.180341,36.547620 45.180341,25.000000 C 45.180341,13.452381 35.894626,4.1666665 24.347006,4.1666665 L 24.347006,4.1666665 z M 24.347006,30.000001 C 21.608911,30.000001 19.347006,27.738096 19.347006,25.000000 C 19.347006,22.261905 21.608911,20.000000 24.347006,20.000000 C 27.085101,20.000000 29.347006,22.261905 29.347006,25.000000 C 29.347006,27.738096 27.085101,30.000001 24.347006,30.000001 z "
       id="path3419" />
    <path
       id="path3431"
       d="M 24.347006,4.1666665 C 12.799386,4.1666665 3.5136720,13.452381 3.5136720,25.000000 C 3.5136720,36.547620 12.799386,45.833335 24.347006,45.833335 C 35.894626,45.833335 45.180341,36.547620 45.180341,25.000000 C 45.180341,13.452381 35.894626,4.1666665 24.347006,4.1666665 L 24.347006,4.1666665 z M 24.347006,30.000001 C 21.608911,30.000001 19.347006,27.738096 19.347006,25.000000 C 19.347006,22.261905 21.608911,20.000000 24.347006,20.000000 C 27.085101,20.000000 29.347006,22.261905 29.347006,25.000000 C 29.347006,27.738096 27.085101,30.000001 24.347006,30.000001 z "
       style="opacity:0.62285714;stroke-opacity:1.0000000;stroke-miterlimit:4.0000000;stroke:none;fill-rule:nonzero;fill:url(#radialGradient3433);fill-opacity:1.0" />
    <path
       style="opacity:0.37142857;stroke-opacity:1.0000000;stroke-miterlimit:4.0000000;stroke:none;fill-rule:nonzero;fill:url(#radialGradient3443);fill-opacity:1.0"
       d="M 24.347006,4.1666665 C 12.799386,4.1666665 3.5136720,13.452381 3.5136720,25.000000 C 3.5136720,36.547620 12.799386,45.833335 24.347006,45.833335 C 35.894626,45.833335 45.180341,36.547620 45.180341,25.000000 C 45.180341,13.452381 35.894626,4.1666665 24.347006,4.1666665 L 24.347006,4.1666665 z M 24.347006,30.000001 C 21.608911,30.000001 19.347006,27.738096 19.347006,25.000000 C 19.347006,22.261905 21.608911,20.000000 24.347006,20.000000 C 27.085101,20.000000 29.347006,22.261905 29.347006,25.000000 C 29.347006,27.738096 27.085101,30.000001 24.347006,30.000001 z "
       id="path3441" />
    <path
       id="path3445"
       d="M 24.347006,4.1666665 C 12.799386,4.1666665 3.5136720,13.452381 3.5136720,25.000000 C 3.5136720,36.547620 12.799386,45.833335 24.347006,45.833335 C 35.894626,45.833335 45.180341,36.547620 45.180341,25.000000 C 45.180341,13.452381 35.894626,4.1666665 24.347006,4.1666665 L 24.347006,4.1666665 z M 24.347006,30.000001 C 21.608911,30.000001 19.347006,27.738096 19.347006,25.000000 C 19.347006,22.261905 21.608911,20.000000 24.347006,20.000000 C 27.085101,20.000000 29.347006,22.261905 29.347006,25.000000 C 29.347006,27.738096 27.085101,30.000001 24.347006,30.000001 z "
       style="fill-opacity:1.0;fill:url(#radialGradient3447);fill-rule:nonzero;stroke:none;stroke-miterlimit:4.0000000;stroke-opacity:1.0000000;opacity:0.23428571" />
  </g>
</svg>
