<?xml version="1.0" encoding="UTF-8" standalone="no"?>
<!-- Created with Inkscape (http://www.inkscape.org/) -->
<svg
   xmlns:dc="http://purl.org/dc/elements/1.1/"
   xmlns:cc="http://web.resource.org/cc/"
   xmlns:rdf="http://www.w3.org/1999/02/22-rdf-syntax-ns#"
   xmlns:svg="http://www.w3.org/2000/svg"
   xmlns="http://www.w3.org/2000/svg"
   xmlns:xlink="http://www.w3.org/1999/xlink"
   xmlns:sodipodi="http://inkscape.sourceforge.net/DTD/sodipodi-0.dtd"
   xmlns:inkscape="http://www.inkscape.org/namespaces/inkscape"
   width="48.000000px"
   height="48.000000px"
   id="svg97"
   sodipodi:version="0.32"
   inkscape:version="0.42+devel"
   sodipodi:docbase="/home/jimmac/gfx/ximian/tango-icon-theme/scalable/mimetypes"
   sodipodi:docname="x-directory-normal-drag-accept.svg"
   inkscape:export-filename="/home/jimmac/ximian_art/icons/nautilus/snowdunes/gnome-fs-directory-accept.png"
   inkscape:export-xdpi="90.000000"
   inkscape:export-ydpi="90.000000">
  <defs
     id="defs3">
    <linearGradient
       id="linearGradient4301">
      <stop
         id="stop4303"
         offset="0.0000000"
         style="stop-color:#5a5a5a;stop-opacity:1.0000000;" />
      <stop
         id="stop4305"
         offset="1.0000000"
         style="stop-color:#727272;stop-opacity:1.0000000;" />
    </linearGradient>
    <linearGradient
       id="linearGradient4285">
      <stop
         style="stop-color:#d2d2d2;stop-opacity:1.0000000;"
         offset="0.0000000"
         id="stop4287" />
      <stop
         id="stop4291"
         offset="0.20000000"
         style="stop-color:#acacac;stop-opacity:1.0000000;" />
      <stop
         style="stop-color:#cfcfcf;stop-opacity:1.0000000;"
         offset="1.0000000"
         id="stop4289" />
    </linearGradient>
    <linearGradient
       id="linearGradient4271"
       inkscape:collect="always">
      <stop
         id="stop4273"
         offset="0"
         style="stop-color:#505f89;stop-opacity:1;" />
      <stop
         id="stop4275"
         offset="1"
         style="stop-color:#505f89;stop-opacity:0;" />
    </linearGradient>
    <linearGradient
       y2="9.0026054"
       x2="18.786077"
       y1="5.9092765"
       x1="18.827934"
       gradientTransform="matrix(1.000000,0.000000,1.512174e-2,0.711187,-5.623101e-2,1.073968)"
       gradientUnits="userSpaceOnUse"
       id="linearGradient3164"
       xlink:href="#linearGradient3154"
       inkscape:collect="always" />
    <linearGradient
       id="linearGradient3154">
      <stop
         id="stop3156"
         offset="0.0000000"
         style="stop-color:#505f89;stop-opacity:1.0000000;" />
      <stop
         id="stop3158"
         offset="1.0000000"
         style="stop-color:#4d65aa;stop-opacity:0.0000000;" />
    </linearGradient>
    <linearGradient
       id="linearGradient151">
      <stop
         style="stop-color:#9b9b9b;stop-opacity:1.0000000;"
         offset="0.0000000"
         id="stop152" />
      <stop
         style="stop-color:#ffffff;stop-opacity:1.0000000;"
         offset="1.0000000"
         id="stop153" />
    </linearGradient>
    <linearGradient
       id="linearGradient148">
      <stop
         style="stop-color:#ffffff;stop-opacity:0.13402061;"
         offset="0.0000000"
         id="stop149" />
      <stop
         style="stop-color:#ffffff;stop-opacity:0.051546391;"
         offset="1.0000000"
         id="stop150" />
    </linearGradient>
    <linearGradient
       id="linearGradient120">
      <stop
         style="stop-color:#c3c3c3;stop-opacity:1.0000000;"
         offset="0.0000000"
         id="stop121" />
      <stop
         style="stop-color:#9b9b9b;stop-opacity:1.0000000;"
         offset="1.0000000"
         id="stop122" />
    </linearGradient>
    <linearGradient
       id="linearGradient335">
      <stop
         style="stop-color:#ffffff;stop-opacity:1.0000000;"
         offset="0.0000000"
         id="stop336" />
      <stop
         style="stop-color:#ffffff;stop-opacity:0.0000000;"
         offset="1.0000000"
         id="stop337" />
    </linearGradient>
    <linearGradient
       inkscape:collect="always"
       xlink:href="#linearGradient319"
       id="linearGradient325"
       gradientUnits="userSpaceOnUse"
       gradientTransform="matrix(1.270458,0.000000,0.000000,0.787118,52.11645,-1.916483)"
       x1="11.953409"
       y1="22.244717"
       x2="14.821566"
       y2="45.625412" />
    <linearGradient
       gradientUnits="userSpaceOnUse"
       y2="15.898409"
       x2="10.782047"
       y1="12.890568"
       x1="10.782047"
       gradientTransform="scale(1.935258,0.516727)"
       id="linearGradient318"
       xlink:href="#linearGradient330"
       inkscape:collect="always" />
    <linearGradient
       inkscape:collect="always"
       xlink:href="#linearGradient330"
       id="linearGradient314"
       gradientUnits="userSpaceOnUse"
       gradientTransform="scale(1.935258,0.516727)"
       x1="10.782047"
       y1="12.890568"
       x2="10.782047"
       y2="15.898409" />
    <linearGradient
       id="linearGradient310">
      <stop
         style="stop-color:#c3c3c3;stop-opacity:1.0000000;"
         offset="0.0000000"
         id="stop311" />
      <stop
         style="stop-color:#9b9b9b;stop-opacity:1.0000000;"
         offset="1.0000000"
         id="stop312" />
    </linearGradient>
    <radialGradient
       inkscape:collect="always"
       xlink:href="#linearGradient1789"
       id="radialGradient309"
       gradientUnits="userSpaceOnUse"
       gradientTransform="matrix(1.015635,0.000000,0.103105,0.984606,52.11645,-1.916483)"
       cx="20.706017"
       cy="37.517986"
       fx="20.706017"
       fy="37.517986"
       r="30.905205" />
    <linearGradient
       id="linearGradient305">
      <stop
         style="stop-color:#a0a0a0;stop-opacity:1.0000000;"
         offset="0.0000000"
         id="stop306" />
      <stop
         style="stop-color:#ffffff;stop-opacity:0.66467065;"
         offset="1.0000000"
         id="stop307" />
    </linearGradient>
    <linearGradient
       inkscape:collect="always"
       xlink:href="#linearGradient483"
       id="linearGradient304"
       gradientUnits="userSpaceOnUse"
       gradientTransform="matrix(1.273077,0.000000,0.000000,0.785498,52.11645,-1.916483)"
       x1="19.115341"
       y1="46.548481"
       x2="19.115341"
       y2="6.0213861" />
    <linearGradient
       id="linearGradient324">
      <stop
         id="stop325"
         offset="0.0000000"
         style="stop-color:#ffffff;stop-opacity:0.11340206;" />
      <stop
         id="stop326"
         offset="1.0000000"
         style="stop-color:#ffffff;stop-opacity:0.051546391;" />
    </linearGradient>
    <linearGradient
       gradientUnits="userSpaceOnUse"
       y2="41.836895"
       x2="22.715446"
       y1="27.059643"
       x1="14.899379"
       gradientTransform="scale(1.535299,0.651339)"
       id="linearGradient328"
       xlink:href="#linearGradient324"
       inkscape:collect="always" />
    <linearGradient
       id="linearGradient319"
       inkscape:collect="always">
      <stop
         id="stop320"
         offset="0"
         style="stop-color:#ffffff;stop-opacity:1;" />
      <stop
         id="stop321"
         offset="1"
         style="stop-color:#ffffff;stop-opacity:0;" />
    </linearGradient>
    <linearGradient
       gradientUnits="userSpaceOnUse"
       y2="45.625412"
       x2="14.821566"
       y1="22.244717"
       x1="11.953409"
       gradientTransform="scale(1.270458,0.787118)"
       id="linearGradient322"
       xlink:href="#linearGradient319"
       inkscape:collect="always" />
    <linearGradient
       id="linearGradient483">
      <stop
         style="stop-color:#a0a0a0;stop-opacity:1.0000000;"
         offset="0.0000000"
         id="stop484" />
      <stop
         style="stop-color:#ffffff;stop-opacity:0.66467065;"
         offset="1.0000000"
         id="stop485" />
    </linearGradient>
    <linearGradient
       inkscape:collect="always"
       xlink:href="#linearGradient483"
       id="linearGradient486"
       gradientTransform="scale(1.273077,0.785498)"
       x1="19.115341"
       y1="46.548481"
       x2="19.115341"
       y2="6.0213861"
       gradientUnits="userSpaceOnUse" />
    <linearGradient
       id="linearGradient295">
      <stop
         style="stop-color:#ffffff;stop-opacity:0.86597937;"
         offset="0.0000000"
         id="stop296" />
      <stop
         style="stop-color:#ffffff;stop-opacity:0.0000000;"
         offset="1.0000000"
         id="stop297" />
    </linearGradient>
    <linearGradient
       inkscape:collect="always"
       xlink:href="#linearGradient404"
       id="linearGradient408"
       gradientUnits="userSpaceOnUse"
       gradientTransform="scale(4.272957,0.234030)"
       x1="9.5761766"
       y1="36.718296"
       x2="6.9999604"
       y2="36.718296" />
    <linearGradient
       id="linearGradient404">
      <stop
         style="stop-color:#ffffff;stop-opacity:0.86597937;"
         offset="0.0000000"
         id="stop405" />
      <stop
         style="stop-color:#ffffff;stop-opacity:0.0000000;"
         offset="1.0000000"
         id="stop406" />
    </linearGradient>
    <linearGradient
       id="linearGradient292">
      <stop
         style="stop-color:#ffffff;stop-opacity:0.87628865;"
         offset="0.0000000"
         id="stop293" />
      <stop
         style="stop-color:#fffffe;stop-opacity:0.0000000;"
         offset="1.0000000"
         id="stop294" />
    </linearGradient>
    <linearGradient
       inkscape:collect="always"
       xlink:href="#linearGradient3983"
       id="linearGradient491"
       gradientUnits="userSpaceOnUse"
       gradientTransform="scale(1.462696,0.683669)"
       x1="6.2297964"
       y1="13.773066"
       x2="9.9835482"
       y2="50.378723" />
    <linearGradient
       gradientUnits="userSpaceOnUse"
       y2="15.898409"
       x2="10.782047"
       y1="12.890568"
       x1="10.782047"
       gradientTransform="scale(1.935258,0.516727)"
       id="linearGradient288"
       xlink:href="#linearGradient330"
       inkscape:collect="always" />
    <linearGradient
       id="linearGradient330"
       inkscape:collect="always">
      <stop
         id="stop331"
         offset="0"
         style="stop-color:#797979;stop-opacity:1;" />
      <stop
         id="stop332"
         offset="1"
         style="stop-color:#797979;stop-opacity:0;" />
    </linearGradient>
    <linearGradient
       id="linearGradient1789">
      <stop
         style="stop-color:#a9a9a9;stop-opacity:1.0000000;"
         offset="0.0000000"
         id="stop1790" />
      <stop
         style="stop-color:#868686;stop-opacity:1.0000000;"
         offset="1.0000000"
         id="stop1791" />
    </linearGradient>
    <radialGradient
       inkscape:collect="always"
       xlink:href="#linearGradient1789"
       id="radialGradient238"
       gradientUnits="userSpaceOnUse"
       gradientTransform="matrix(1.015635,0.000000,0.103105,0.984606,0.000000,0.000000)"
       cx="20.706017"
       cy="37.517986"
       fx="20.706017"
       fy="37.517986"
       r="30.905205" />
    <linearGradient
       id="linearGradient225">
      <stop
         id="stop226"
         offset="0.0000000"
         style="stop-color:#ffffff;stop-opacity:0.35686275;" />
      <stop
         id="stop227"
         offset="1.0000000"
         style="stop-color:#6b6b6b;stop-opacity:1.0000000;" />
    </linearGradient>
    <linearGradient
       id="linearGradient137">
      <stop
         style="stop-color:#ffffff;stop-opacity:0.70059878;"
         offset="0.0000000"
         id="stop138" />
      <stop
         style="stop-color:#ffffff;stop-opacity:0.0000000;"
         offset="1.0000000"
         id="stop139" />
    </linearGradient>
    <linearGradient
       id="linearGradient238">
      <stop
         style="stop-color:#ffffff;stop-opacity:0.67058825;"
         offset="0.0000000"
         id="stop239" />
      <stop
         style="stop-color:#ffffff;stop-opacity:0.0000000;"
         offset="1.0000000"
         id="stop240" />
    </linearGradient>
    <linearGradient
       id="linearGradient5261">
      <stop
         id="stop5262"
         offset="0.0000000"
         style="stop-color:#7a7a7a;stop-opacity:1.0000000;" />
      <stop
         id="stop5263"
         offset="1.0000000"
         style="stop-color:#606060;stop-opacity:1.0000000;" />
    </linearGradient>
    <linearGradient
       id="linearGradient7020">
      <stop
         id="stop7021"
         offset="0.0000000"
         style="stop-color:#ffffff;stop-opacity:0.35686275;" />
      <stop
         id="stop7022"
         offset="1.0000000"
         style="stop-color:#6b6b6b;stop-opacity:1.0000000;" />
    </linearGradient>
    <linearGradient
       y2="55.205368"
       x2="18.990906"
       y1="30.898741"
       x1="15.361217"
       gradientTransform="scale(1.462696,0.683669)"
       gradientUnits="userSpaceOnUse"
       id="linearGradient7033"
       xlink:href="#linearGradient238"
       inkscape:collect="always" />
    <linearGradient
       id="linearGradient3983">
      <stop
         style="stop-color:#ffffff;stop-opacity:0.67065871;"
         offset="0.0000000"
         id="stop3984" />
      <stop
         style="stop-color:#fffffe;stop-opacity:0.0000000;"
         offset="1.0000000"
         id="stop3985" />
    </linearGradient>
    <linearGradient
       inkscape:collect="always"
       xlink:href="#linearGradient137"
       id="linearGradient48"
       gradientUnits="userSpaceOnUse"
       gradientTransform="matrix(1.462696,0.000000,6.907908e-2,0.683669,0.000000,0.000000)"
       x1="5.2657914"
       y1="18.725863"
       x2="8.2122240"
       y2="52.625851" />
    <linearGradient
       inkscape:collect="always"
       xlink:href="#linearGradient324"
       id="linearGradient299"
       gradientUnits="userSpaceOnUse"
       gradientTransform="matrix(1.535299,0.000000,0.000000,0.651339,3.451418,2.448000)"
       x1="14.899379"
       y1="27.059643"
       x2="22.715446"
       y2="41.836895" />
    <linearGradient
       inkscape:collect="always"
       xlink:href="#linearGradient319"
       id="linearGradient300"
       gradientUnits="userSpaceOnUse"
       gradientTransform="matrix(1.270458,0.000000,0.000000,0.787118,52.11645,-1.916483)"
       x1="11.953409"
       y1="22.244717"
       x2="14.821566"
       y2="45.625412" />
    <linearGradient
       inkscape:collect="always"
       xlink:href="#linearGradient483"
       id="linearGradient301"
       gradientUnits="userSpaceOnUse"
       gradientTransform="matrix(1.273077,0.000000,0.000000,0.785498,52.11645,-1.916483)"
       x1="19.115341"
       y1="46.548481"
       x2="19.115341"
       y2="6.0213861" />
    <linearGradient
       inkscape:collect="always"
       xlink:href="#linearGradient3983"
       id="linearGradient302"
       gradientUnits="userSpaceOnUse"
       gradientTransform="matrix(1.462696,0.000000,0.000000,0.683669,52.11645,-1.916483)"
       x1="6.2297964"
       y1="13.773066"
       x2="9.9835482"
       y2="50.378723" />
    <radialGradient
       inkscape:collect="always"
       xlink:href="#linearGradient1789"
       id="radialGradient303"
       gradientUnits="userSpaceOnUse"
       gradientTransform="matrix(1.015635,0.000000,0.103105,0.984606,52.11645,-1.916483)"
       cx="20.706017"
       cy="37.517986"
       fx="20.706017"
       fy="37.517986"
       r="30.905205" />
    <linearGradient
       inkscape:collect="always"
       xlink:href="#linearGradient483"
       id="linearGradient308"
       gradientUnits="userSpaceOnUse"
       gradientTransform="scale(1.273077,0.785498)"
       x1="22.268488"
       y1="43.763271"
       x2="22.268488"
       y2="15.068013" />
    <radialGradient
       inkscape:collect="always"
       xlink:href="#linearGradient1789"
       id="radialGradient313"
       gradientUnits="userSpaceOnUse"
       gradientTransform="matrix(1.015635,0.000000,0.103105,0.984606,0.000000,0.000000)"
       cx="26.106777"
       cy="38.195114"
       fx="26.106777"
       fy="38.195114"
       r="32.259769" />
    <linearGradient
       inkscape:collect="always"
       xlink:href="#linearGradient335"
       id="linearGradient338"
       gradientTransform="scale(1.421537,0.703464)"
       x1="19.116116"
       y1="28.946041"
       x2="19.426924"
       y2="51.912693"
       gradientUnits="userSpaceOnUse" />
    <linearGradient
       inkscape:collect="always"
       xlink:href="#linearGradient335"
       id="linearGradient143"
       gradientUnits="userSpaceOnUse"
       gradientTransform="scale(1.421537,0.703464)"
       x1="19.116116"
       y1="28.946041"
       x2="19.426924"
       y2="51.912693" />
    <linearGradient
       inkscape:collect="always"
       xlink:href="#linearGradient148"
       id="linearGradient144"
       gradientUnits="userSpaceOnUse"
       gradientTransform="matrix(1.535299,0.000000,0.000000,0.651339,3.451418,2.448000)"
       x1="14.899379"
       y1="27.059643"
       x2="22.715446"
       y2="41.836895" />
    <linearGradient
       inkscape:collect="always"
       xlink:href="#linearGradient151"
       id="linearGradient145"
       gradientUnits="userSpaceOnUse"
       gradientTransform="scale(1.273077,0.785498)"
       x1="22.268488"
       y1="43.763271"
       x2="22.268488"
       y2="15.068013" />
    <linearGradient
       inkscape:collect="always"
       xlink:href="#linearGradient137"
       id="linearGradient146"
       gradientUnits="userSpaceOnUse"
       gradientTransform="matrix(1.462696,0.000000,6.907908e-2,0.683669,0.000000,0.000000)"
       x1="5.2657914"
       y1="18.725863"
       x2="8.2122240"
       y2="52.625851" />
    <radialGradient
       inkscape:collect="always"
       xlink:href="#linearGradient1789"
       id="radialGradient147"
       gradientUnits="userSpaceOnUse"
       gradientTransform="matrix(1.015635,0.000000,0.103105,0.984606,0.000000,0.000000)"
       cx="26.106777"
       cy="38.195114"
       fx="26.106777"
       fy="38.195114"
       r="32.259769" />
    <linearGradient
       inkscape:collect="always"
       xlink:href="#linearGradient335"
       id="linearGradient155"
       gradientUnits="userSpaceOnUse"
       gradientTransform="scale(1.421537,0.703464)"
       x1="19.116116"
       y1="28.946041"
       x2="19.426924"
       y2="51.912693" />
    <linearGradient
       inkscape:collect="always"
       xlink:href="#linearGradient148"
       id="linearGradient156"
       gradientUnits="userSpaceOnUse"
       gradientTransform="matrix(1.535299,0.000000,0.000000,0.651339,3.451418,2.448000)"
       x1="14.899379"
       y1="27.059643"
       x2="22.715446"
       y2="41.836895" />
    <linearGradient
       inkscape:collect="always"
       xlink:href="#linearGradient4285"
       id="linearGradient157"
       gradientUnits="userSpaceOnUse"
       gradientTransform="scale(1.273077,0.785498)"
       x1="22.060202"
       y1="48.601856"
       x2="22.060202"
       y2="23.948261" />
    <linearGradient
       inkscape:collect="always"
       xlink:href="#linearGradient137"
       id="linearGradient158"
       gradientUnits="userSpaceOnUse"
       gradientTransform="matrix(1.462696,0.000000,6.907908e-2,0.683669,0.000000,0.000000)"
       x1="5.2657914"
       y1="18.725863"
       x2="8.2122240"
       y2="52.625851" />
    <radialGradient
       inkscape:collect="always"
       xlink:href="#linearGradient1789"
       id="radialGradient159"
       gradientUnits="userSpaceOnUse"
       gradientTransform="matrix(1.015635,0.000000,0.103105,0.984606,0.000000,0.000000)"
       cx="26.106777"
       cy="38.195114"
       fx="26.106777"
       fy="38.195114"
       r="32.259769" />
    <linearGradient
       y2="9.0026054"
       x2="18.786077"
       y1="5.9092765"
       x1="18.827934"
       gradientTransform="matrix(1.000000,0.000000,1.512174e-2,0.711187,-5.623101e-2,1.073968)"
       gradientUnits="userSpaceOnUse"
       id="linearGradient4266"
       xlink:href="#linearGradient3154"
       inkscape:collect="always" />
    <linearGradient
       gradientUnits="userSpaceOnUse"
       y2="11.792200"
       x2="10.789429"
       y1="8.4334431"
       x1="10.789429"
       id="linearGradient4277"
       xlink:href="#linearGradient4271"
       inkscape:collect="always" />
    <linearGradient
       gradientUnits="userSpaceOnUse"
       y2="34.779343"
       x2="16.550123"
       y1="38.782520"
       x1="16.550123"
       id="linearGradient4309"
       xlink:href="#linearGradient4301"
       inkscape:collect="always" />
  </defs>
  <sodipodi:namedview
     id="base"
     pagecolor="#ffffff"
     bordercolor="#666666"
     borderopacity="1.0"
     inkscape:pageopacity="0.0"
     inkscape:pageshadow="2"
     inkscape:zoom="8"
     inkscape:cx="12.115917"
     inkscape:cy="17.387169"
     inkscape:current-layer="layer3"
     showgrid="false"
     inkscape:grid-bbox="true"
     inkscape:document-units="px"
     inkscape:window-width="934"
     inkscape:window-height="653"
     inkscape:window-x="185"
     inkscape:window-y="106"
     inkscape:showpageshadow="false" />
  <metadata
     id="metadata4">
    <rdf:RDF>
      <cc:Work
         rdf:about="">
        <dc:format>image/svg+xml</dc:format>
        <dc:type
           rdf:resource="http://purl.org/dc/dcmitype/StillImage" />
        <dc:title>Folder Icon Accept</dc:title>
        <dc:date>2005-01-31</dc:date>
        <dc:creator>
          <cc:Agent>
            <dc:title>Jakub Steiner</dc:title>
          </cc:Agent>
        </dc:creator>
        <cc:license
           rdf:resource="http://creativecommons.org/licenses/by-sa/2.0/" />
        <dc:source>http://jimmac.musichall.cz</dc:source>
        <dc:description>Active state - when files are being dragged to.</dc:description>
        <dc:publisher>
          <cc:Agent>
            <dc:title>Novell, Inc.</dc:title>
          </cc:Agent>
        </dc:publisher>
      </cc:Work>
      <cc:License
         rdf:about="http://creativecommons.org/licenses/by-sa/2.0/">
        <cc:permits
           rdf:resource="http://web.resource.org/cc/Reproduction" />
        <cc:permits
           rdf:resource="http://web.resource.org/cc/Distribution" />
        <cc:requires
           rdf:resource="http://web.resource.org/cc/Notice" />
        <cc:requires
           rdf:resource="http://web.resource.org/cc/Attribution" />
        <cc:permits
           rdf:resource="http://web.resource.org/cc/DerivativeWorks" />
        <cc:requires
           rdf:resource="http://web.resource.org/cc/ShareAlike" />
      </cc:License>
    </rdf:RDF>
  </metadata>
  <g
     id="layer1"
     inkscape:label="Folder"
     inkscape:groupmode="layer" />
  <g
     inkscape:label="Open"
     id="layer3"
     inkscape:groupmode="layer">
    <g
       inkscape:export-ydpi="74.800003"
       inkscape:export-xdpi="74.800003"
       inkscape:export-filename="/home/jimmac/ximian_art/icons/nautilus/suse93/gnome-fs-directory.png"
       transform="matrix(1.034424,0.000000,-0.495029,-0.645645,11.68444,60.77602)"
       style="fill-rule:nonzero;stroke:#000000;stroke-miterlimit:4.0000000;display:block"
       id="g2347">
      <g
         id="g2348"
         style="stroke:none">
        <g
           id="g2349">
          <g
             id="g2350"
             style="opacity:0.0000000">
            <path
               id="path2351"
               d="M 9.9000000,39.700000 C 8.0000000,39.700000 5.7000000,38.300000 4.8000000,36.600000 L 3.0000000,33.100000 C 2.1000000,31.400000 2.5000000,28.900000 3.9000000,27.500000 L 4.7000000,26.700000 C 6.1000000,25.300000 8.8000000,24.200000 10.700000,24.200000 L 39.700000,24.200000 C 41.600000,24.200000 44.400000,25.200000 45.900000,26.400000 L 47.600000,27.800000 C 49.100000,29.000000 49.700000,31.500000 49.000000,33.200000 L 47.700000,36.300000 C 47.000000,38.100000 44.800000,39.500000 42.800000,39.500000 L 9.9000000,39.700000 z " />
          </g>
          <g
             id="g2352"
             style="opacity:0.013599993">
            <path
               id="path2353"
               d="M 5.0000000,27.500000 C 6.4000000,26.100000 9.0000000,25.000000 11.000000,25.000000 L 39.800000,25.000000 C 41.700000,25.000000 44.500000,26.000000 46.000000,27.300000 L 47.000000,28.200000 C 48.500000,29.400000 49.100000,31.900000 48.300000,33.700000 L 47.300000,36.200000 C 46.600000,38.000000 44.400000,39.400000 42.400000,39.400000 L 10.300000,39.500000 C 8.4000000,39.500000 6.1000000,38.100000 5.2000000,36.400000 L 3.7000000,33.600000 C 2.8000000,31.900000 3.2000000,29.300000 4.5000000,28.000000 L 5.0000000,27.500000 z " />
          </g>
          <g
             id="g2354"
             style="opacity:0.027299942">
            <path
               id="path2355"
               d="M 5.4000000,28.300000 C 6.7000000,26.900000 9.3000000,25.800000 11.200000,25.800000 L 39.800000,25.800000 C 41.700000,25.800000 44.500000,26.800000 45.900000,28.100000 L 46.400000,28.500000 C 47.800000,29.800000 48.400000,32.300000 47.700000,34.100000 L 47.000000,35.900000 C 46.300000,37.700000 44.100000,39.100000 42.200000,39.100000 L 11.000000,39.200000 C 9.1000000,39.200000 6.8000000,37.800000 5.9000000,36.100000 L 4.7000000,34.000000 C 3.8000000,32.300000 4.1000000,29.700000 5.4000000,28.400000 L 5.4000000,28.300000 z " />
          </g>
          <g
             id="g2356"
             style="opacity:0.040899996">
            <path
               id="path2357"
               d="M 5.9000000,28.900000 C 7.0000000,27.600000 9.5000000,26.600000 11.400000,26.600000 L 39.800000,26.600000 C 41.700000,26.600000 44.400000,27.700000 45.800000,29.000000 C 47.200000,30.300000 47.700000,32.800000 46.900000,34.600000 L 46.400000,35.700000 C 45.700000,37.500000 43.500000,38.900000 41.600000,39.000000 L 11.300000,39.000000 C 9.4000000,39.000000 7.1000000,37.600000 6.2000000,35.900000 L 5.4000000,34.400000 C 4.5000000,32.700000 4.7000000,30.200000 5.8000000,28.900000 L 5.9000000,28.900000 z " />
          </g>
          <g
             id="g2358"
             style="opacity:0.054499988">
            <path
               id="path2359"
               d="M 6.5000000,29.500000 C 7.5000000,28.300000 9.8000000,27.400000 11.700000,27.400000 L 39.800000,27.400000 C 41.700000,27.400000 44.300000,28.400000 45.400000,29.600000 C 46.500000,30.800000 46.900000,33.200000 46.200000,35.000000 L 46.000000,35.400000 C 45.300000,37.200000 43.100000,38.600000 41.200000,38.700000 L 11.700000,38.800000 C 9.8000000,38.800000 7.5000000,37.400000 6.6000000,35.700000 L 6.2000000,34.900000 C 5.3000000,33.200000 5.4000000,30.800000 6.4000000,29.600000 L 6.5000000,29.500000 z " />
          </g>
          <g
             id="g2360"
             style="opacity:0.068200000">
            <path
               id="path2361"
               d="M 7.0000000,30.100000 C 7.8000000,29.000000 10.000000,28.100000 11.900000,28.100000 L 39.800000,28.100000 C 41.700000,28.100000 44.100000,29.000000 45.100000,30.100000 C 46.100000,31.200000 46.300000,33.500000 45.600000,35.200000 C 44.900000,36.900000 42.700000,38.300000 40.800000,38.300000 L 12.200000,38.400000 C 10.300000,38.400000 8.0000000,37.000000 7.1000000,35.300000 L 7.0000000,35.100000 C 6.1000000,33.400000 6.1000000,31.100000 6.9000000,30.000000 L 7.0000000,30.100000 z " />
          </g>
          <g
             id="g2362"
             style="opacity:0.081799991">
            <path
               id="path2363"
               d="M 7.5000000,30.700000 C 8.1000000,29.700000 10.200000,28.900000 12.200000,28.900000 L 39.900000,28.900000 C 41.800000,28.900000 44.000000,29.700000 44.800000,30.700000 C 45.600000,31.700000 45.700000,33.800000 45.100000,35.300000 C 44.500000,36.800000 42.400000,38.100000 40.500000,38.100000 L 12.800000,38.200000 C 10.900000,38.200000 8.7000000,36.900000 7.9000000,35.300000 C 7.1000000,33.700000 7.0000000,31.600000 7.6000000,30.600000 L 7.5000000,30.700000 z " />
          </g>
          <g
             id="g2364"
             style="opacity:0.095500000">
            <path
               id="path2365"
               d="M 8.1000000,31.300000 C 8.6000000,30.400000 10.500000,29.700000 12.500000,29.700000 L 40.000000,29.700000 C 41.900000,29.700000 44.000000,30.400000 44.600000,31.300000 C 45.200000,32.200000 45.200000,34.100000 44.700000,35.400000 C 44.200000,36.700000 42.100000,37.900000 40.200000,37.900000 L 13.200000,38.000000 C 11.300000,38.000000 9.1000000,36.800000 8.5000000,35.400000 C 7.8000000,34.000000 7.7000000,32.100000 8.1000000,31.200000 L 8.1000000,31.300000 z " />
          </g>
          <g
             id="g2366"
             style="opacity:0.10909999">
            <path
               id="path2367"
               d="M 8.6000000,31.900000 C 8.9000000,31.100000 10.700000,30.500000 12.700000,30.500000 L 39.900000,30.500000 C 41.800000,30.500000 43.700000,31.200000 44.100000,32.000000 C 44.500000,32.800000 44.400000,34.400000 44.000000,35.600000 C 43.600000,36.800000 41.600000,37.700000 39.600000,37.700000 L 13.600000,37.800000 C 11.700000,37.800000 9.6000000,36.800000 9.1000000,35.600000 C 8.5000000,34.400000 8.3000000,32.700000 8.6000000,32.000000 L 8.6000000,31.900000 z " />
          </g>
          <g
             id="g2368"
             style="opacity:0.12269998">
            <path
               id="path2369"
               d="M 9.2000000,32.500000 C 9.3000000,31.800000 11.000000,31.300000 13.000000,31.300000 L 40.000000,31.300000 C 41.900000,31.300000 43.700000,31.900000 43.900000,32.600000 C 44.100000,33.300000 43.900000,34.700000 43.600000,35.700000 C 43.200000,36.700000 41.300000,37.500000 39.400000,37.500000 L 14.200000,37.600000 C 12.300000,37.600000 10.300000,36.700000 9.8000000,35.700000 C 9.3000000,34.600000 9.1000000,33.200000 9.2000000,32.600000 L 9.2000000,32.500000 z " />
          </g>
          <g
             id="g2370"
             style="opacity:0.13640000">
            <path
               id="path2371"
               d="M 9.7000000,33.100000 C 9.7000000,32.500000 11.300000,32.100000 13.200000,32.100000 L 40.000000,32.100000 C 41.900000,32.100000 43.500000,32.600000 43.500000,33.200000 C 43.500000,33.800000 43.300000,35.000000 42.900000,35.800000 C 42.500000,36.600000 40.800000,37.300000 38.800000,37.300000 L 14.500000,37.300000 C 12.600000,37.300000 10.700000,36.600000 10.300000,35.700000 C 9.9000000,34.800000 9.6000000,33.600000 9.6000000,33.100000 L 9.7000000,33.100000 z " />
          </g>
          <g
             id="g2372"
             style="opacity:0.14999999">
            <path
               id="path2373"
               d="M 15.000000,37.000000 C 13.100000,37.000000 11.100000,36.100000 10.700000,34.900000 C 10.300000,33.700000 11.500000,32.800000 13.400000,32.800000 L 40.000000,32.800000 C 41.900000,32.800000 43.200000,33.700000 42.700000,34.900000 C 42.300000,36.000000 40.400000,37.000000 38.500000,37.000000 L 15.000000,37.000000 z " />
          </g>
        </g>
      </g>
    </g>
    <path
       sodipodi:nodetypes="ccccccssssccc"
       style="color:#000000;fill:url(#radialGradient159);fill-opacity:1.0000000;fill-rule:nonzero;stroke:#5a5a5a;stroke-width:1.0000000;stroke-linecap:round;stroke-linejoin:round;stroke-miterlimit:4.0000000;stroke-dashoffset:0.0000000;stroke-opacity:1.0000000;marker:none;marker-start:none;marker-mid:none;marker-end:none;visibility:visible;display:inline;overflow:visible"
       id="path2375"
       d="M 4.6200285,38.118899 C 4.6618365,38.532669 5.1174141,38.946439 5.5311838,38.946439 L 36.667346,38.946439 C 37.081116,38.946439 37.453078,38.532669 37.411270,38.118899 L 34.714653,11.430759 C 34.672845,11.016989 34.217267,10.603220 33.803498,10.603220 L 21.080082,10.603220 C 20.489536,10.603220 19.870999,10.229702 19.677221,9.6581520 L 18.574219,6.4048330 C 18.404967,5.9056201 18.027069,5.6807361 17.259746,5.6807361 L 2.3224188,5.6807361 C 1.9086492,5.6807361 1.5366876,6.0945058 1.5784956,6.5082754 L 4.6200285,38.118899 z " />
    <path
       style="color:#000000;fill:url(#linearGradient4277);fill-opacity:1.0000000;fill-rule:nonzero;stroke:none;stroke-width:1.1525134;stroke-linecap:butt;stroke-linejoin:miter;stroke-miterlimit:4.0000000;stroke-dashoffset:0.0000000;stroke-opacity:1.0000000;marker:none;marker-start:none;marker-mid:none;marker-end:none;visibility:visible;display:inline;overflow:visible;font-family:Bitstream Vera Sans"
       d="M 20.237836,11.737214 L 18.130414,6.8268601 C 17.884724,6.2543961 17.709441,6.2617251 17.165488,6.2644131 L 2.6048980,6.3363711 C 2.2945708,6.3363711 2.1085900,6.5432551 2.1399460,6.8535831 L 2.4701162,11.840656"
       id="path2378"
       sodipodi:nodetypes="cssccc" />
    <path
       sodipodi:nodetypes="ccccccsscsscccc"
       id="path2380"
       d="M 6.1717518,38.418674 C 6.2031078,38.729001 6.0171270,38.935886 5.6963478,38.832443 L 5.6963478,38.832443 C 5.3755686,38.729001 5.1477798,38.522116 5.1164238,38.211789 L 2.0868572,6.8445942 C 2.0555012,6.5342670 2.2434512,6.3468711 2.5537784,6.3468711 L 17.303531,6.2554251 C 17.834815,6.2521313 18.042960,6.3087310 18.183330,6.7726371 C 18.183330,6.7726371 19.268704,9.8854350 19.429564,10.470742 L 17.873968,7.5537061 C 17.608788,7.0564434 17.275224,7.1399365 16.901178,7.1399365 L 3.7717775,7.1399365 C 3.4614503,7.1399365 3.2754695,7.3468213 3.3068255,7.6571485 L 6.2856462,38.522116 L 6.1717518,38.418674 z "
       style="color:#000000;fill:url(#linearGradient158);fill-opacity:1.0000000;fill-rule:nonzero;stroke:none;stroke-width:1.1734115;stroke-linecap:butt;stroke-linejoin:miter;stroke-miterlimit:4.0000000;stroke-dashoffset:0.0000000;stroke-opacity:1.0000000;marker:none;marker-start:none;marker-mid:none;marker-end:none;visibility:visible;display:block;overflow:visible" />
    <g
       inkscape:export-ydpi="74.800003"
       inkscape:export-xdpi="74.800003"
       inkscape:export-filename="/home/jimmac/ximian_art/icons/nautilus/suse93/gnome-fs-directory.png"
       transform="matrix(1.034424,0.000000,0.104520,1.034424,-10.03248,2.631914)"
       id="g2381"
       style="fill:#ffffff;fill-opacity:0.58031088;fill-rule:nonzero;stroke:#000000;stroke-miterlimit:4.0000000;display:block">
      <path
         sodipodi:nodetypes="cscscs"
         id="path2382"
         d="M 41.785743,9.0363862 C 41.795369,8.5618034 41.800932,8.3118806 41.362350,8.3121830 L 28.806530,8.3208402 C 28.506530,8.3208402 28.481916,8.1776341 28.806530,8.3208402 C 29.131144,8.4640463 30.053628,8.9791114 30.989227,9.0218349 C 30.989227,9.0218349 41.785704,9.0382983 41.785743,9.0363862 z "
         style="stroke:none" />
    </g>
    <g
       inkscape:export-ydpi="74.800003"
       inkscape:export-xdpi="74.800003"
       inkscape:export-filename="/home/jimmac/ximian_art/icons/nautilus/suse93/gnome-fs-directory.png"
       transform="matrix(1.034424,0.000000,0.104520,1.034424,-10.07074,3.474385)"
       id="g2383"
       style="color:#000000;fill:#ffffff;fill-opacity:1.0000000;fill-rule:nonzero;stroke:none;stroke-width:0.97021240;stroke-linecap:butt;stroke-linejoin:miter;stroke-miterlimit:4.0000000;stroke-dashoffset:0.0000000;stroke-opacity:1.0000000;marker:none;marker-start:none;marker-mid:none;marker-end:none;visibility:visible;display:inline;overflow:visible">
      <g
         id="g2384"
         style="color:#000000;stroke-dashoffset:0.0000000;marker:none;marker-start:none;marker-mid:none;marker-end:none;visibility:visible;display:inline;overflow:visible">
        <path
           id="path2386"
           d="M 12.856826,7.7418960 C 12.856826,8.0418960 12.656826,8.2418960 12.356826,8.2418960 C 12.056826,8.2418960 11.856826,8.0418960 11.856826,7.7418960 C 11.856826,7.4418960 12.056826,7.2418960 12.356826,7.2418960 C 12.656826,7.2418960 12.856826,7.4418960 12.856826,7.7418960 z "
           style="color:#000000;stroke-dashoffset:0.0000000;marker:none;marker-start:none;marker-mid:none;marker-end:none;visibility:visible;display:inline;overflow:visible" />
        <path
           id="path2387"
           d="M 14.786907,7.7751744 C 14.786907,8.0751744 14.586907,8.2751744 14.286907,8.2751744 C 13.986907,8.2751744 13.786907,8.0751744 13.786907,7.7751744 C 13.786907,7.4751744 13.986907,7.2751744 14.286907,7.2751744 C 14.586907,7.2751744 14.786907,7.4751744 14.786907,7.7751744 z "
           style="color:#000000;stroke-dashoffset:0.0000000;marker:none;marker-start:none;marker-mid:none;marker-end:none;visibility:visible;display:inline;overflow:visible" />
        <path
           id="path2388"
           d="M 16.720350,7.7751744 C 16.720350,8.0751744 16.520350,8.2751744 16.220350,8.2751744 C 15.920350,8.2751744 15.720350,8.0751744 15.720350,7.7751744 C 15.720350,7.4751744 15.920350,7.2751744 16.220350,7.2751744 C 16.520350,7.2751744 16.720350,7.4751744 16.720350,7.7751744 z "
           style="color:#000000;stroke-dashoffset:0.0000000;marker:none;marker-start:none;marker-mid:none;marker-end:none;visibility:visible;display:inline;overflow:visible" />
        <path
           id="path2389"
           d="M 18.653793,7.7751744 C 18.653793,8.0751744 18.453793,8.2751744 18.153793,8.2751744 C 17.853793,8.2751744 17.653793,8.0751744 17.653793,7.7751744 C 17.653793,7.4751744 17.853793,7.2751744 18.153793,7.2751744 C 18.453793,7.2751744 18.653793,7.4751744 18.653793,7.7751744 z "
           style="color:#000000;stroke-dashoffset:0.0000000;marker:none;marker-start:none;marker-mid:none;marker-end:none;visibility:visible;display:inline;overflow:visible" />
        <path
           id="path2390"
           d="M 20.547329,7.7751744 C 20.547329,8.0751744 20.347329,8.2751744 20.047329,8.2751744 C 19.747329,8.2751744 19.547329,8.0751744 19.547329,7.7751744 C 19.547329,7.4751744 19.747329,7.2751744 20.047329,7.2751744 C 20.347329,7.2751744 20.547329,7.4751744 20.547329,7.7751744 z "
           style="color:#000000;stroke-dashoffset:0.0000000;marker:none;marker-start:none;marker-mid:none;marker-end:none;visibility:visible;display:inline;overflow:visible" />
        <path
           id="path2391"
           d="M 22.480772,7.7751744 C 22.480772,8.0751744 22.280772,8.2751744 21.980772,8.2751744 C 21.680772,8.2751744 21.480772,8.0751744 21.480772,7.7751744 C 21.480772,7.4751744 21.680772,7.2751744 21.980772,7.2751744 C 22.280772,7.2751744 22.480772,7.4751744 22.480772,7.7751744 z "
           style="color:#000000;stroke-dashoffset:0.0000000;marker:none;marker-start:none;marker-mid:none;marker-end:none;visibility:visible;display:inline;overflow:visible" />
        <path
           id="path2392"
           d="M 24.454123,7.7751744 C 24.454123,8.0751744 24.254123,8.2751744 23.954123,8.2751744 C 23.654123,8.2751744 23.454123,8.0751744 23.454123,7.7751744 C 23.454123,7.4751744 23.654123,7.2751744 23.954123,7.2751744 C 24.254123,7.2751744 24.454123,7.4751744 24.454123,7.7751744 z "
           style="color:#000000;stroke-dashoffset:0.0000000;marker:none;marker-start:none;marker-mid:none;marker-end:none;visibility:visible;display:inline;overflow:visible" />
        <path
           id="path2393"
           d="M 26.387566,7.7751744 C 26.387566,8.0751744 26.187566,8.2751744 25.887566,8.2751744 C 25.587566,8.2751744 25.387566,8.0751744 25.387566,7.7751744 C 25.387566,7.4751744 25.587566,7.2751744 25.887566,7.2751744 C 26.187566,7.2751744 26.387566,7.4751744 26.387566,7.7751744 z "
           style="color:#000000;stroke-dashoffset:0.0000000;marker:none;marker-start:none;marker-mid:none;marker-end:none;visibility:visible;display:inline;overflow:visible" />
        <path
           id="path2394"
           d="M 28.284464,7.7418960 C 28.284464,8.0418960 28.084464,8.2418960 27.784464,8.2418960 C 27.484464,8.2418960 27.284464,8.0418960 27.284464,7.7418960 C 27.284464,7.4418960 27.484464,7.2418960 27.784464,7.2418960 C 28.084464,7.2418960 28.284464,7.4418960 28.284464,7.7418960 z "
           style="color:#000000;stroke-dashoffset:0.0000000;marker:none;marker-start:none;marker-mid:none;marker-end:none;visibility:visible;display:inline;overflow:visible" />
      </g>
    </g>
    <path
       inkscape:export-ydpi="74.800003"
       inkscape:export-xdpi="74.800003"
       inkscape:export-filename="/home/jimmac/ximian_art/icons/nautilus/suse93/gnome-fs-directory.png"
       sodipodi:nodetypes="cccsscccscc"
       id="path2401"
       d="M 5.7785654,38.611019 C 5.8820074,38.817912 6.0888914,39.024796 6.3992173,39.024796 L 39.707670,39.024796 C 39.914562,39.024796 40.228834,38.901224 40.415844,38.766165 C 40.946246,38.383103 41.070704,38.167032 41.308626,37.813763 C 43.756752,34.178703 47.113767,18.954010 47.113767,18.954010 C 47.217209,18.747126 47.010326,18.540242 46.700000,18.540242 L 11.776358,18.540242 C 11.466032,18.540242 10.120393,34.299019 6.9133592,37.409906 L 5.6751235,38.611019 L 5.7785654,38.611019 z "
       style="color:#000000;fill:url(#linearGradient157);fill-opacity:1.0000000;fill-rule:nonzero;stroke:url(#linearGradient4309);stroke-width:1.0000000;stroke-linecap:round;stroke-linejoin:round;stroke-miterlimit:4.0000000;stroke-dashoffset:0.0000000;stroke-opacity:1.0000000;marker:none;marker-start:none;marker-mid:none;marker-end:none;visibility:visible;display:block;overflow:visible" />
    <path
       id="path323"
       d="M 13.134476,20.138641 C 12.361729,25.129398 11.633175,29.147884 10.418486,33.652505 C 12.804971,32.945398 17.534602,30.448000 27.534602,30.448000 C 37.534602,30.448000 44.258175,21.199301 45.186253,20.094447 L 13.134476,20.138641 z "
       style="fill:url(#linearGradient156);fill-opacity:1.0000000;fill-rule:evenodd;stroke:none;stroke-width:1.0000000px;stroke-linecap:butt;stroke-linejoin:miter;stroke-opacity:1.0000000"
       sodipodi:nodetypes="ccccc" />
    <path
       style="color:#000000;fill:none;fill-opacity:1.0000000;fill-rule:evenodd;stroke:url(#linearGradient155);stroke-width:1.0000000px;stroke-linecap:round;stroke-linejoin:miter;stroke-miterlimit:4.0000000;stroke-dashoffset:0.0000000;stroke-opacity:1.0000000;marker:none;marker-start:none;marker-mid:none;marker-end:none;visibility:visible;display:inline;overflow:visible"
       d="M 45.820083,19.687500 L 12.661612,19.687500 C 12.661612,19.687500 10.513864,35.707107 7.9393398,37.928078 C 16.060417,37.928078 39.510511,37.879442 39.530330,37.879442 C 41.281989,37.879442 44.437971,25.243248 45.820083,19.687500 z "
       id="path324"
       sodipodi:nodetypes="cccsc" />
  </g>
  <g
     inkscape:groupmode="layer"
     id="layer2"
     inkscape:label="pattern" />
</svg>
